<svg width="67" height="66" viewBox="0 0 67 66" fill="none" xmlns="http://www.w3.org/2000/svg">
<path d="M22.8396 37.2892H10.7156V43.9811H22.8396C23.1889 43.9814 23.5238 44.1449 23.7709 44.4357C24.0179 44.7265 24.1568 45.1209 24.1571 45.5321V65.1199H29.8423V45.5321C29.8401 43.3468 29.1014 41.2516 27.7886 39.7063C26.4759 38.161 24.6961 37.2918 22.8396 37.2892Z" fill="#B6203A"/>
<path d="M36.7461 45.5321V65.1199H42.431V45.5321C42.4313 45.1209 42.5702 44.7265 42.8173 44.4357C43.0643 44.1449 43.3992 43.9814 43.7485 43.9811H55.8749V37.2892H43.7523C41.8952 37.2907 40.1142 38.1595 38.8006 39.7049C37.4871 41.2503 36.7483 43.3461 36.7461 45.5321Z" fill="#B6203A"/>
<path d="M55.8711 24.5112H10.7156V31.2031H55.8711V24.5112Z" fill="#B6203A"/>
<path d="M17.9745 50.3784H12.2896V65.1197H17.9745V50.3784Z" fill="#B6203A"/>
<path d="M54.2987 50.3784H48.6138V65.1197H54.2987V50.3784Z" fill="#B6203A"/>
<path d="M17.6088 13.713V18.0896H23.2937V13.713C23.2937 10.0769 22.0666 6.58987 19.8824 4.01878C17.6981 1.44768 14.7357 0.00317383 11.6467 0.00317383C8.55777 0.00317383 5.59557 1.44768 3.41135 4.01878C1.22714 6.58987 0 10.0769 0 13.713V65.1197H5.68375V13.713C5.68375 11.8516 6.31181 10.0663 7.43 8.75009C8.54819 7.43384 10.0648 6.69436 11.6461 6.69436C13.2275 6.69436 14.7441 7.43384 15.8623 8.75009C16.9804 10.0663 17.6088 11.8516 17.6088 13.713Z" fill="#B6203A"/>
<path d="M54.9409 0H54.822C51.7341 0.00445391 48.7737 1.45043 46.5904 4.02074C44.4071 6.59104 43.179 10.0758 43.1755 13.7105V18.0872H48.8593V13.7105C48.8612 11.8497 49.4901 10.0658 50.6079 8.75C51.7256 7.43423 53.2412 6.6941 54.822 6.69187H54.9409C56.5218 6.69373 58.0375 7.43381 59.1553 8.74966C60.2731 10.0655 60.902 11.8496 60.9036 13.7105V65.117H66.5885V13.7105C66.585 10.0755 65.3566 6.59057 63.1731 4.02022C60.9895 1.44988 58.0289 0.00408283 54.9409 0Z" fill="#B6203A"/>
</svg>
