<svg width="77" height="72" viewBox="0 0 77 72" fill="none" xmlns="http://www.w3.org/2000/svg">
<path d="M62.81 69.1863C62.7362 69.0944 62.6426 69.0205 62.5363 68.9702C62.43 68.9199 62.3138 68.8944 62.1963 68.8958C62.0711 68.8942 61.947 68.9196 61.8324 68.9703C61.7178 69.021 61.6155 69.0959 61.5322 69.1898C61.4491 69.0902 61.3435 69.0123 61.2241 68.9626C61.1046 68.9129 60.975 68.8929 60.8462 68.9043C60.7424 68.889 60.6364 68.8957 60.5352 68.9241C60.4341 68.9525 60.3401 69.0019 60.2592 69.0691C60.1782 69.1363 60.1123 69.2198 60.0655 69.3143C60.0187 69.4087 59.9921 69.512 59.9876 69.6174H60.3969C60.4246 69.3718 60.6097 69.2912 60.8299 69.2912C60.8792 69.2831 60.9296 69.287 60.9771 69.3024C61.0246 69.3178 61.0678 69.3443 61.1031 69.3797C61.1384 69.4152 61.1648 69.4586 61.1801 69.5063C61.1954 69.554 61.1992 69.6047 61.1912 69.6542V69.779H60.77C60.2682 69.779 59.9287 70.0207 59.9287 70.3838C59.9287 70.4144 59.931 70.445 59.9356 70.4753L60.4206 70.3405C60.4339 70.1983 60.5874 70.1013 60.8661 70.1013H61.1952V70.1261L61.7687 69.967C61.7687 69.9596 61.7687 69.9521 61.7687 69.9441C61.7614 69.869 61.7695 69.7931 61.7925 69.7212C61.8156 69.6493 61.8531 69.5829 61.9027 69.5262C61.9524 69.4695 62.0131 69.4237 62.0812 69.3916C62.1492 69.3594 62.2231 69.3417 62.2983 69.3395C62.4031 69.3427 62.5044 69.3777 62.5891 69.4398C62.6738 69.5019 62.7379 69.5883 62.7729 69.6876L63.2935 69.5433V68.9352H62.8402L62.81 69.1863Z" fill="#005EA1"/>
<path d="M60.5472 70.9895C60.6724 71.0066 60.7998 70.9915 60.9177 70.9457C61.0356 70.8999 61.1401 70.8248 61.2212 70.7274L61.2534 70.9532H61.6666V70.8203C61.8203 70.9347 62.0069 70.9955 62.1981 70.9934C62.3097 70.9943 62.4202 70.971 62.522 70.9251C62.6238 70.8792 62.7146 70.8118 62.7881 70.7274V70.9452C62.792 71.3605 62.5713 71.5538 62.2986 71.5742C62.1782 71.5964 62.0539 71.5722 61.9505 71.5064C61.8471 71.4406 61.7722 71.338 61.7408 71.2192H61.2876C61.3165 71.4532 61.4366 71.6662 61.6216 71.8113C61.8066 71.9565 62.0413 72.022 62.2743 71.9935C62.4109 72.0007 62.5475 71.9787 62.675 71.9289C62.8025 71.8792 62.9181 71.8028 63.014 71.7049C63.1099 71.6069 63.184 71.4896 63.2315 71.3607C63.279 71.2318 63.2987 71.0942 63.2894 70.9571V69.7338L62.7881 69.873V70.151C62.7591 70.2617 62.6952 70.36 62.606 70.4312C62.5168 70.5024 62.407 70.5426 62.2932 70.5458C62.1773 70.5461 62.0647 70.5069 61.9738 70.4347C61.883 70.3624 61.8192 70.2614 61.7928 70.148L61.1915 70.3146V70.3679C61.1332 70.4441 61.0582 70.5058 60.9725 70.5484C60.8867 70.591 60.7923 70.6133 60.6966 70.6135C60.6536 70.6154 60.6108 70.6074 60.5713 70.5902C60.5319 70.5729 60.4969 70.5469 60.469 70.514L59.9829 70.6488C60.0353 70.7534 60.1161 70.8408 60.216 70.9011C60.3158 70.9614 60.4307 70.9921 60.5472 70.9895Z" fill="#005EA1"/>
<path d="M40.3364 70.4026C40.3364 70.1072 40.5493 69.8163 41.214 69.8163H41.7089V69.6299C41.7089 69.2688 41.5109 69.1097 41.1679 69.1097C40.825 69.1097 40.619 69.2494 40.5844 69.4901H40.4181C40.4572 69.1833 40.6809 68.95 41.1798 68.95C41.2741 68.939 41.3695 68.9493 41.4594 68.9801C41.5492 69.011 41.631 69.0617 41.6988 69.1284C41.7666 69.1952 41.8188 69.2763 41.8513 69.3659C41.8839 69.4555 41.896 69.5513 41.8869 69.6462V70.9238H41.7127L41.6974 70.5975C41.6095 70.7076 41.4992 70.7975 41.3739 70.8611C41.2486 70.9248 41.1112 70.9608 40.9709 70.9666C40.8919 70.9734 40.8125 70.9641 40.7373 70.9391C40.6621 70.9142 40.5927 70.8741 40.5334 70.8214C40.474 70.7686 40.426 70.7043 40.3921 70.6323C40.3583 70.5604 40.3393 70.4822 40.3364 70.4026ZM41.7082 70.3211V69.9481L41.1828 69.9521C40.6384 69.9561 40.5067 70.2007 40.5067 70.4101C40.5055 70.4639 40.5154 70.5173 40.5358 70.567C40.5561 70.6167 40.5866 70.6617 40.6251 70.699C40.6636 70.7364 40.7093 70.7654 40.7594 70.7841C40.8096 70.8028 40.8631 70.811 40.9165 70.8079C41.0821 70.8171 41.2464 70.7754 41.3878 70.6885C41.5293 70.6015 41.641 70.4734 41.7082 70.3211Z" fill="#616160"/>
<path d="M42.9992 69.9521C42.9859 69.8258 42.9989 69.6981 43.0374 69.5772C43.0759 69.4563 43.139 69.3448 43.2229 69.2498C43.3067 69.1548 43.4093 69.0784 43.5242 69.0255C43.6391 68.9726 43.7637 68.9443 43.8901 68.9425C44.0723 68.9296 44.2531 68.9827 44.3998 69.0921C44.5465 69.2016 44.6494 69.3602 44.6898 69.5393H44.5195C44.4849 69.4053 44.4044 69.2878 44.292 69.2075C44.1797 69.1273 44.0428 69.0895 43.9054 69.1007C43.7982 69.0991 43.6919 69.1209 43.5939 69.1645C43.4959 69.2082 43.4085 69.2726 43.3377 69.3534C43.2668 69.4342 43.2142 69.5295 43.1835 69.6326C43.1527 69.7358 43.1445 69.8445 43.1596 69.9511C43.1596 70.4907 43.4565 70.8014 43.9054 70.8014C44.0421 70.8093 44.1774 70.7702 44.289 70.6905C44.4006 70.6108 44.482 70.4952 44.5195 70.3629H44.6744C44.6277 70.5354 44.5253 70.6875 44.3834 70.7955C44.2415 70.9035 44.068 70.9611 43.8901 70.9596C43.7639 70.9578 43.6394 70.9296 43.5247 70.8768C43.41 70.8241 43.3075 70.7479 43.2237 70.6531C43.1399 70.5583 43.0767 70.447 43.038 70.3263C42.9994 70.2056 42.9862 70.0782 42.9992 69.9521Z" fill="#616160"/>
<path d="M45.6572 70.4026C45.6572 70.1072 45.8701 69.8163 46.5348 69.8163H47.0297V69.6299C47.0297 69.2688 46.8317 69.1097 46.4887 69.1097C46.1458 69.1097 45.9399 69.2494 45.9053 69.4901H45.7389C45.778 69.1833 46.0017 68.95 46.5006 68.95C46.5949 68.939 46.6905 68.9493 46.7803 68.9801C46.8701 69.011 46.9518 69.0617 47.0196 69.1284C47.0874 69.1952 47.1396 69.2763 47.1721 69.3659C47.2047 69.4555 47.2168 69.5513 47.2077 69.6462V70.9238H47.0335L47.0182 70.5975C46.9303 70.7076 46.82 70.7975 46.6947 70.8611C46.5694 70.9248 46.4321 70.9608 46.2918 70.9666C46.2129 70.9734 46.1333 70.9641 46.0581 70.9391C45.9829 70.9142 45.9135 70.8741 45.8542 70.8214C45.7948 70.7686 45.7468 70.7043 45.7129 70.6323C45.6791 70.5604 45.6601 70.4822 45.6572 70.4026ZM47.0292 70.3211V69.9481L46.5036 69.9521C45.9592 69.9561 45.8275 70.2007 45.8275 70.4101C45.8263 70.4639 45.8362 70.5173 45.8566 70.567C45.8769 70.6167 45.9074 70.6617 45.9459 70.699C45.9844 70.7364 46.0301 70.7654 46.0802 70.7841C46.1304 70.8028 46.1839 70.811 46.2373 70.8079C46.4025 70.8167 46.5665 70.7748 46.7075 70.6879C46.8486 70.6009 46.96 70.4731 47.0271 70.3211H47.0292Z" fill="#616160"/>
<path d="M50.1448 70.9228H49.9825L49.9711 70.5344C49.8967 70.665 49.7892 70.7733 49.6595 70.8484C49.5297 70.9234 49.3824 70.9625 49.2327 70.9616C48.9866 70.9325 48.7597 70.8136 48.595 70.6275C48.4303 70.4415 48.3394 70.2011 48.3394 69.9521C48.3394 69.7031 48.4303 69.4627 48.595 69.2766C48.7597 69.0905 48.9866 68.9717 49.2327 68.9426C49.3821 68.9415 49.5292 68.9796 49.6593 69.0532C49.7895 69.1267 49.8983 69.2331 49.9751 69.3618V68.0107H50.1448V70.9228ZM49.9751 70.1272V69.774C49.9545 69.5934 49.8696 69.4264 49.7361 69.3036C49.6026 69.1809 49.4294 69.1108 49.2485 69.1062C49.0459 69.1351 48.8604 69.2365 48.7262 69.3918C48.592 69.5472 48.5182 69.7459 48.5182 69.9516C48.5182 70.1573 48.592 70.356 48.7262 70.5114C48.8604 70.6667 49.0459 70.7681 49.2485 70.797C49.4302 70.7928 49.6042 70.7226 49.7382 70.5993C49.8723 70.476 49.9574 70.3081 49.9776 70.1267L49.9751 70.1272Z" fill="#616160"/>
<path d="M53.1996 70.0183H51.5922C51.5855 70.1237 51.601 70.2294 51.6376 70.3284C51.6743 70.4274 51.7312 70.5176 51.8048 70.5931C51.8785 70.6685 51.967 70.7275 52.0649 70.7663C52.1627 70.805 52.2676 70.8225 52.3726 70.8179C52.514 70.8257 52.654 70.7877 52.7723 70.7094C52.8905 70.6312 52.9807 70.5169 53.0294 70.3833H53.1778C53.1257 70.566 53.011 70.7243 52.854 70.8301C52.6969 70.936 52.5076 70.9826 52.3197 70.9616C52.0721 70.9345 51.8431 70.8165 51.6768 70.6302C51.5105 70.4438 51.4185 70.2024 51.4185 69.9521C51.4185 69.7018 51.5105 69.4603 51.6768 69.274C51.8431 69.0877 52.0721 68.9697 52.3197 68.9426C52.4443 68.9432 52.5673 68.9701 52.6809 69.0215C52.7945 69.0729 52.8962 69.1476 52.9792 69.2409C53.0623 69.3342 53.1249 69.444 53.1631 69.5632C53.2014 69.6823 53.2143 69.8082 53.2011 69.9327C53.2024 69.9612 53.202 69.9898 53.1996 70.0183ZM51.5922 69.8591H53.0452C53.0482 69.7625 53.0319 69.6662 52.9974 69.576C52.9629 69.4857 52.9109 69.4033 52.8443 69.3335C52.7777 69.2637 52.6978 69.208 52.6095 69.1695C52.5212 69.1311 52.4263 69.1108 52.3301 69.1097C52.1334 69.1109 51.9451 69.1904 51.8068 69.331C51.6684 69.4715 51.5913 69.6614 51.5922 69.8591Z" fill="#616160"/>
<path d="M57.2955 69.6258V70.9228H57.1179V69.6373C57.122 69.5664 57.1111 69.4954 57.0859 69.429C57.0608 69.3626 57.0219 69.3022 56.9719 69.252C56.9218 69.2018 56.8618 69.1628 56.7957 69.1376C56.7296 69.1124 56.659 69.1015 56.5884 69.1057C56.5125 69.1003 56.4364 69.1099 56.3642 69.1341C56.2921 69.1583 56.2254 69.1966 56.168 69.2467C56.1106 69.2968 56.0635 69.3578 56.0296 69.4262C55.9956 69.4946 55.9755 69.569 55.9702 69.6453V70.9228H55.7926V69.6373C55.7971 69.5663 55.7864 69.4952 55.7613 69.4286C55.7363 69.3621 55.6974 69.3016 55.6473 69.2514C55.5972 69.2011 55.537 69.162 55.4708 69.1369C55.4045 69.1118 55.3337 69.1012 55.2631 69.1057C55.1874 69.1003 55.1115 69.1101 55.0397 69.1344C54.9678 69.1586 54.9014 69.197 54.8443 69.2471C54.7872 69.2973 54.7406 69.3582 54.707 69.4266C54.6735 69.4949 54.6538 69.5692 54.6489 69.6453V70.9228H54.4707V68.9833H54.6409L54.6489 69.2902C54.7231 69.1866 54.8204 69.1021 54.9331 69.0433C55.0458 68.9846 55.1708 68.9533 55.2977 68.952C55.4306 68.9553 55.5593 68.9985 55.6675 69.0761C55.7756 69.1537 55.8581 69.262 55.9044 69.3872C55.9755 69.2583 56.079 69.1504 56.2044 69.074C56.3298 68.9977 56.4729 68.9556 56.6195 68.952C56.7093 68.9465 56.7992 68.9601 56.8833 68.992C56.9674 69.0238 57.044 69.0731 57.1078 69.1367C57.1716 69.2004 57.2214 69.2768 57.2537 69.3611C57.2861 69.4454 57.3003 69.5356 57.2955 69.6258Z" fill="#616160"/>
<path d="M58.6665 68.4468C58.6668 68.4047 58.6835 68.3643 58.7131 68.3346C58.7428 68.3048 58.783 68.288 58.8249 68.2877C58.8455 68.2879 58.8658 68.2921 58.8847 68.3003C58.9036 68.3084 58.9208 68.3201 58.9352 68.3349C58.9496 68.3497 58.9609 68.3672 58.9686 68.3864C58.9762 68.4056 58.9801 68.4261 58.9798 68.4468C58.9798 68.4884 58.9636 68.5284 58.9346 68.5581C58.9057 68.5879 58.8663 68.605 58.8249 68.6059C58.7832 68.605 58.7434 68.588 58.7139 68.5583C58.6844 68.5287 58.6674 68.4887 58.6665 68.4468ZM58.9139 68.9829V70.9223H58.7363V68.9829H58.9139Z" fill="#616160"/>
<path d="M64.4967 68.0107H64.6704V70.9228H64.4927L64.4967 68.0107Z" fill="#616160"/>
<path d="M66.4648 69.9521C66.4822 69.775 66.5505 69.6067 66.6612 69.4678C66.772 69.329 66.9205 69.2254 67.0887 69.1697C67.2569 69.114 67.4377 69.1087 67.609 69.1542C67.7802 69.1998 67.9346 69.2943 68.0534 69.4263C68.1721 69.5584 68.2502 69.7222 68.2781 69.898C68.306 70.0738 68.2824 70.2539 68.2103 70.4165C68.1382 70.5791 68.0208 70.7171 67.8721 70.8139C67.7235 70.9107 67.55 70.962 67.3729 70.9616C67.2461 70.9587 67.1213 70.9299 67.0061 70.8769C66.8908 70.8239 66.7874 70.7478 66.7024 70.6533C66.6174 70.5589 66.5525 70.4479 66.5117 70.3274C66.4708 70.2068 66.4549 70.0791 66.4648 69.9521ZM68.1072 69.9521C68.1208 69.8469 68.112 69.74 68.0813 69.6385C68.0505 69.5371 67.9985 69.4434 67.9288 69.3637C67.8591 69.284 67.7734 69.2201 67.6772 69.1764C67.5811 69.1327 67.4768 69.1101 67.3712 69.1101C67.2656 69.1101 67.1612 69.1327 67.065 69.1764C66.9689 69.2201 66.8831 69.284 66.8135 69.3637C66.7438 69.4434 66.6918 69.5371 66.661 69.6385C66.6302 69.74 66.6214 69.8469 66.635 69.9521C66.6214 70.0573 66.6302 70.1642 66.661 70.2656C66.6918 70.3671 66.7438 70.4608 66.8135 70.5405C66.8831 70.6202 66.9689 70.684 67.065 70.7278C67.1612 70.7715 67.2656 70.7941 67.3712 70.7941C67.4768 70.7941 67.5811 70.7715 67.6772 70.7278C67.7734 70.684 67.8591 70.6202 67.9288 70.5405C67.9985 70.4608 68.0505 70.3671 68.0813 70.2656C68.112 70.1642 68.1208 70.0573 68.1072 69.9521Z" fill="#616160"/>
<path d="M71.8478 69.9521C71.8591 70.0779 71.8446 70.2048 71.8053 70.3248C71.766 70.4448 71.7027 70.5555 71.6192 70.6501C71.5358 70.7446 71.4341 70.821 71.3202 70.8746C71.2063 70.9281 71.0827 70.9578 70.957 70.9616C70.8072 70.9625 70.6599 70.9239 70.5297 70.8497C70.3994 70.7754 70.2907 70.6681 70.2147 70.5384L70.2107 70.9228H70.0444V68.0107H70.2187V69.3618C70.294 69.2328 70.4019 69.1262 70.5315 69.0526C70.661 68.979 70.8077 68.941 70.9565 68.9426C71.0825 68.9457 71.2064 68.9748 71.3207 69.0282C71.4349 69.0815 71.5371 69.1579 71.6207 69.2526C71.7043 69.3473 71.7676 69.4582 71.8066 69.5786C71.8457 69.6989 71.8598 69.8261 71.8478 69.9521ZM71.6776 69.9521C71.6886 69.847 71.6779 69.7409 71.6461 69.6402C71.6143 69.5395 71.562 69.4465 71.4927 69.3671C71.4234 69.2877 71.3385 69.2236 71.2434 69.1788C71.1482 69.1339 71.0448 69.1094 70.9397 69.1067C70.759 69.1106 70.586 69.1805 70.4529 69.3035C70.3199 69.4264 70.2361 69.594 70.2172 69.7746V70.1316C70.2361 70.3122 70.3199 70.4798 70.4529 70.6027C70.586 70.7257 70.759 70.7956 70.9397 70.7995C71.0448 70.7962 71.1481 70.7712 71.2431 70.7261C71.3382 70.6809 71.4229 70.6167 71.4921 70.5372C71.5614 70.4577 71.6136 70.3646 71.6455 70.264C71.6774 70.1633 71.6883 70.0572 71.6776 69.9521Z" fill="#616160"/>
<path d="M73.3853 70.4026C73.3853 70.1072 73.5975 69.8163 74.2622 69.8163H74.7571V69.6299C74.7571 69.2688 74.5591 69.1097 74.2162 69.1097C73.8732 69.1097 73.6673 69.2494 73.6327 69.4901H73.4664C73.5055 69.1833 73.7293 68.95 74.2281 68.95C74.3224 68.939 74.4179 68.9493 74.5077 68.9801C74.5975 69.011 74.6794 69.0617 74.7472 69.1284C74.815 69.1952 74.867 69.2763 74.8995 69.3659C74.9321 69.4555 74.9443 69.5513 74.9353 69.6462V70.9238H74.7611L74.7457 70.5975C74.6579 70.7076 74.5476 70.7975 74.4223 70.8611C74.297 70.9248 74.1595 70.9608 74.0192 70.9666C73.9403 70.9734 73.8609 70.9641 73.7857 70.9391C73.7105 70.9142 73.6411 70.8741 73.5818 70.8213C73.5225 70.7686 73.4745 70.7042 73.4407 70.6323C73.4069 70.5603 73.388 70.4822 73.3853 70.4026ZM74.7566 70.3211V69.9481L74.231 69.9521C73.6866 69.9561 73.555 70.2007 73.555 70.4101C73.5538 70.4639 73.5638 70.5173 73.5841 70.567C73.6045 70.6167 73.6348 70.6617 73.6733 70.699C73.7118 70.7364 73.7576 70.7654 73.8078 70.7841C73.8579 70.8028 73.9114 70.811 73.9648 70.8079C74.1304 70.8171 74.2947 70.7754 74.4362 70.6885C74.5776 70.6015 74.6894 70.4734 74.7566 70.3211Z" fill="#616160"/>
<path d="M76.8086 68.0107H76.9823V70.9228H76.8047L76.8086 68.0107Z" fill="#616160"/>
<path d="M13.516 71.024C13.3027 71.024 13.1093 70.984 12.936 70.904C12.7653 70.8214 12.6173 70.712 12.492 70.576C12.3693 70.4374 12.2747 70.2827 12.208 70.112C12.1413 69.9387 12.108 69.76 12.108 69.576C12.108 69.3867 12.1427 69.2067 12.212 69.036C12.284 68.8654 12.3827 68.7134 12.508 68.58C12.636 68.444 12.7867 68.3374 12.96 68.26C13.1333 68.1827 13.3227 68.144 13.528 68.144C13.7387 68.144 13.9293 68.1854 14.1 68.268C14.2733 68.348 14.4213 68.4574 14.544 68.596C14.6693 68.7347 14.7653 68.8907 14.832 69.064C14.8987 69.2347 14.932 69.4094 14.932 69.588C14.932 69.7774 14.8973 69.9574 14.828 70.128C14.7587 70.2987 14.66 70.452 14.532 70.588C14.404 70.7214 14.2533 70.828 14.08 70.908C13.9093 70.9854 13.7213 71.024 13.516 71.024ZM12.776 69.584C12.776 69.6934 12.792 69.8 12.824 69.904C12.856 70.0054 12.9027 70.096 12.964 70.176C13.028 70.256 13.1067 70.32 13.2 70.368C13.2933 70.416 13.4 70.44 13.52 70.44C13.6453 70.44 13.7547 70.416 13.848 70.368C13.9413 70.3174 14.0187 70.2507 14.08 70.168C14.1413 70.0854 14.1867 69.9934 14.216 69.892C14.248 69.788 14.264 69.6827 14.264 69.576C14.264 69.4667 14.248 69.3614 14.216 69.26C14.184 69.1587 14.136 69.068 14.072 68.988C14.008 68.9054 13.9293 68.8414 13.836 68.796C13.7427 68.7507 13.6373 68.728 13.52 68.728C13.3947 68.728 13.2853 68.752 13.192 68.8C13.1013 68.848 13.024 68.9134 12.96 68.996C12.8987 69.076 12.852 69.168 12.82 69.272C12.7907 69.3734 12.776 69.4774 12.776 69.584ZM16.5675 71.04C16.4102 71.04 16.2729 71.0067 16.1555 70.94C16.0382 70.8707 15.9462 70.7774 15.8795 70.66V71.852H15.2395V68.9H15.7955V69.24C15.8729 69.12 15.9702 69.0267 16.0875 68.96C16.2049 68.8934 16.3422 68.86 16.4995 68.86C16.6409 68.86 16.7702 68.888 16.8875 68.944C17.0075 69 17.1115 69.0774 17.1995 69.176C17.2875 69.2747 17.3555 69.3894 17.4035 69.52C17.4515 69.6507 17.4755 69.792 17.4755 69.944C17.4755 70.152 17.4369 70.3387 17.3595 70.504C17.2822 70.6694 17.1742 70.8 17.0355 70.896C16.8995 70.992 16.7435 71.04 16.5675 71.04ZM16.3515 70.5C16.4209 70.5 16.4835 70.4854 16.5395 70.456C16.5982 70.424 16.6489 70.3827 16.6915 70.332C16.7342 70.2814 16.7662 70.2227 16.7875 70.156C16.8115 70.0867 16.8235 70.0147 16.8235 69.94C16.8235 69.8627 16.8102 69.792 16.7835 69.728C16.7595 69.664 16.7249 69.608 16.6795 69.56C16.6342 69.5094 16.5809 69.4707 16.5195 69.444C16.4582 69.4174 16.3915 69.404 16.3195 69.404C16.2769 69.404 16.2329 69.4107 16.1875 69.424C16.1449 69.4374 16.1035 69.4574 16.0635 69.484C16.0262 69.508 15.9915 69.5374 15.9595 69.572C15.9275 69.6067 15.9009 69.6467 15.8795 69.692V70.124C15.9089 70.196 15.9475 70.26 15.9955 70.316C16.0435 70.372 16.0982 70.4174 16.1595 70.452C16.2209 70.484 16.2849 70.5 16.3515 70.5ZM18.8021 71.04C18.6235 71.04 18.4648 71.012 18.3261 70.956C18.1875 70.8974 18.0688 70.8187 17.9701 70.72C17.8741 70.6214 17.8008 70.508 17.7501 70.38C17.6995 70.2494 17.6741 70.1134 17.6741 69.972C17.6741 69.7694 17.7181 69.5854 17.8061 69.42C17.8968 69.252 18.0261 69.1174 18.1941 69.016C18.3621 68.912 18.5648 68.86 18.8021 68.86C19.0395 68.86 19.2408 68.9107 19.4061 69.012C19.5741 69.1134 19.7021 69.2467 19.7901 69.412C19.8781 69.5747 19.9221 69.752 19.9221 69.944C19.9221 69.9814 19.9195 70.0187 19.9141 70.056C19.9115 70.0907 19.9088 70.1214 19.9061 70.148H18.3541C18.3621 70.2414 18.3875 70.32 18.4301 70.384C18.4755 70.448 18.5328 70.4974 18.6021 70.532C18.6715 70.564 18.7448 70.58 18.8221 70.58C18.9181 70.58 19.0075 70.5574 19.0901 70.512C19.1755 70.4667 19.2341 70.4054 19.2661 70.328L19.8101 70.48C19.7568 70.5894 19.6808 70.6867 19.5821 70.772C19.4861 70.8547 19.3715 70.92 19.2381 70.968C19.1075 71.016 18.9621 71.04 18.8021 71.04ZM18.3381 69.756H19.2501C19.2395 69.668 19.2141 69.592 19.1741 69.528C19.1341 69.4614 19.0808 69.4107 19.0141 69.376C18.9475 69.3387 18.8741 69.32 18.7941 69.32C18.7115 69.32 18.6368 69.3387 18.5701 69.376C18.5061 69.4107 18.4541 69.4614 18.4141 69.528C18.3741 69.592 18.3488 69.668 18.3381 69.756ZM21.5442 69.448C21.3895 69.448 21.2495 69.4734 21.1242 69.524C20.9989 69.572 20.9082 69.644 20.8522 69.74V71H20.2122V68.9H20.8002V69.324C20.8722 69.1827 20.9655 69.072 21.0802 68.992C21.1949 68.912 21.3149 68.8707 21.4402 68.868C21.4695 68.868 21.4909 68.868 21.5042 68.868C21.5202 68.868 21.5335 68.8694 21.5442 68.872V69.448ZM21.6661 70.372C21.6661 70.2334 21.7048 70.112 21.7821 70.008C21.8595 69.904 21.9661 69.8227 22.1021 69.764C22.2381 69.7027 22.3941 69.672 22.5701 69.672C22.6555 69.672 22.7395 69.68 22.8221 69.696C22.9048 69.7094 22.9768 69.7294 23.0381 69.756V69.664C23.0381 69.5494 23.0035 69.4614 22.9341 69.4C22.8648 69.3387 22.7595 69.308 22.6181 69.308C22.5008 69.308 22.3901 69.328 22.2861 69.368C22.1848 69.408 22.0768 69.4654 21.9621 69.54L21.7701 69.132C21.9088 69.0414 22.0528 68.9734 22.2021 68.928C22.3541 68.8827 22.5141 68.86 22.6821 68.86C22.9968 68.86 23.2408 68.936 23.4141 69.088C23.5901 69.2374 23.6781 69.4547 23.6781 69.74V70.288C23.6781 70.352 23.6875 70.3974 23.7061 70.424C23.7275 70.448 23.7635 70.4627 23.8141 70.468V71C23.7608 71.0107 23.7101 71.0187 23.6621 71.024C23.6168 71.0294 23.5768 71.032 23.5421 71.032C23.4221 71.032 23.3301 71.008 23.2661 70.96C23.2048 70.912 23.1661 70.8467 23.1501 70.764L23.1381 70.672C23.0448 70.792 22.9328 70.884 22.8021 70.948C22.6741 71.0094 22.5395 71.04 22.3981 71.04C22.2595 71.04 22.1341 71.0107 22.0221 70.952C21.9128 70.8934 21.8261 70.8134 21.7621 70.712C21.6981 70.6107 21.6661 70.4974 21.6661 70.372ZM22.9381 70.452C22.9675 70.428 22.9915 70.4014 23.0101 70.372C23.0288 70.3427 23.0381 70.3147 23.0381 70.288V70.1C22.9848 70.0787 22.9248 70.0627 22.8581 70.052C22.7941 70.0387 22.7341 70.032 22.6781 70.032C22.5608 70.032 22.4635 70.0587 22.3861 70.112C22.3088 70.1627 22.2701 70.2307 22.2701 70.316C22.2701 70.364 22.2835 70.408 22.3101 70.448C22.3368 70.488 22.3728 70.52 22.4181 70.544C22.4661 70.568 22.5221 70.58 22.5861 70.58C22.6501 70.58 22.7141 70.568 22.7781 70.544C22.8421 70.52 22.8955 70.4894 22.9381 70.452ZM24.0219 69.948C24.0219 69.7427 24.0619 69.5587 24.1419 69.396C24.2219 69.2307 24.3312 69.1 24.4699 69.004C24.6085 68.908 24.7685 68.86 24.9499 68.86C25.0965 68.86 25.2299 68.896 25.3499 68.968C25.4699 69.0374 25.5605 69.1294 25.6219 69.244V68.08H26.2619V70.288C26.2619 70.352 26.2725 70.3974 26.2939 70.424C26.3152 70.448 26.3499 70.4627 26.3979 70.468V71C26.2859 71.0214 26.1952 71.032 26.1259 71.032C26.0165 71.032 25.9272 71.008 25.8579 70.96C25.7912 70.912 25.7499 70.8454 25.7339 70.76L25.7219 70.652C25.6472 70.7827 25.5459 70.88 25.4179 70.944C25.2899 71.008 25.1552 71.04 25.0139 71.04C24.8699 71.04 24.7365 71.0134 24.6139 70.96C24.4939 70.904 24.3885 70.8267 24.2979 70.728C24.2099 70.6294 24.1419 70.5134 24.0939 70.38C24.0459 70.2467 24.0219 70.1027 24.0219 69.948ZM25.6259 70.208V69.768C25.5992 69.696 25.5605 69.6334 25.5099 69.58C25.4619 69.5267 25.4059 69.484 25.3419 69.452C25.2805 69.42 25.2179 69.404 25.1539 69.404C25.0845 69.404 25.0205 69.4187 24.9619 69.448C24.9059 69.4774 24.8565 69.5187 24.8139 69.572C24.7712 69.6227 24.7379 69.6814 24.7139 69.748C24.6925 69.8147 24.6819 69.8854 24.6819 69.96C24.6819 70.0374 24.6939 70.1094 24.7179 70.176C24.7445 70.24 24.7805 70.2974 24.8259 70.348C24.8712 70.396 24.9245 70.4334 24.9859 70.46C25.0472 70.4867 25.1139 70.5 25.1859 70.5C25.2312 70.5 25.2752 70.4934 25.3179 70.48C25.3605 70.464 25.4005 70.444 25.4379 70.42C25.4779 70.396 25.5139 70.3654 25.5459 70.328C25.5779 70.2907 25.6045 70.2507 25.6259 70.208ZM26.6271 70.372C26.6271 70.2334 26.6657 70.112 26.7431 70.008C26.8204 69.904 26.9271 69.8227 27.0631 69.764C27.1991 69.7027 27.3551 69.672 27.5311 69.672C27.6164 69.672 27.7004 69.68 27.7831 69.696C27.8657 69.7094 27.9377 69.7294 27.9991 69.756V69.664C27.9991 69.5494 27.9644 69.4614 27.8951 69.4C27.8257 69.3387 27.7204 69.308 27.5791 69.308C27.4617 69.308 27.3511 69.328 27.2471 69.368C27.1457 69.408 27.0377 69.4654 26.9231 69.54L26.7311 69.132C26.8697 69.0414 27.0137 68.9734 27.1631 68.928C27.3151 68.8827 27.4751 68.86 27.6431 68.86C27.9577 68.86 28.2017 68.936 28.3751 69.088C28.5511 69.2374 28.6391 69.4547 28.6391 69.74V70.288C28.6391 70.352 28.6484 70.3974 28.6671 70.424C28.6884 70.448 28.7244 70.4627 28.7751 70.468V71C28.7217 71.0107 28.6711 71.0187 28.6231 71.024C28.5777 71.0294 28.5377 71.032 28.5031 71.032C28.3831 71.032 28.2911 71.008 28.2271 70.96C28.1657 70.912 28.1271 70.8467 28.1111 70.764L28.0991 70.672C28.0057 70.792 27.8937 70.884 27.7631 70.948C27.6351 71.0094 27.5004 71.04 27.3591 71.04C27.2204 71.04 27.0951 71.0107 26.9831 70.952C26.8737 70.8934 26.7871 70.8134 26.7231 70.712C26.6591 70.6107 26.6271 70.4974 26.6271 70.372ZM27.8991 70.452C27.9284 70.428 27.9524 70.4014 27.9711 70.372C27.9897 70.3427 27.9991 70.3147 27.9991 70.288V70.1C27.9457 70.0787 27.8857 70.0627 27.8191 70.052C27.7551 70.0387 27.6951 70.032 27.6391 70.032C27.5217 70.032 27.4244 70.0587 27.3471 70.112C27.2697 70.1627 27.2311 70.2307 27.2311 70.316C27.2311 70.364 27.2444 70.408 27.2711 70.448C27.2977 70.488 27.3337 70.52 27.3791 70.544C27.4271 70.568 27.4831 70.58 27.5471 70.58C27.6111 70.58 27.6751 70.568 27.7391 70.544C27.8031 70.52 27.8564 70.4894 27.8991 70.452ZM31.3644 71.04C31.2071 71.04 31.0697 71.0067 30.9524 70.94C30.8351 70.8707 30.7431 70.7774 30.6764 70.66V71.852H30.0364V68.9H30.5924V69.24C30.6697 69.12 30.7671 69.0267 30.8844 68.96C31.0017 68.8934 31.1391 68.86 31.2964 68.86C31.4377 68.86 31.5671 68.888 31.6844 68.944C31.8044 69 31.9084 69.0774 31.9964 69.176C32.0844 69.2747 32.1524 69.3894 32.2004 69.52C32.2484 69.6507 32.2724 69.792 32.2724 69.944C32.2724 70.152 32.2337 70.3387 32.1564 70.504C32.0791 70.6694 31.9711 70.8 31.8324 70.896C31.6964 70.992 31.5404 71.04 31.3644 71.04ZM31.1484 70.5C31.2177 70.5 31.2804 70.4854 31.3364 70.456C31.3951 70.424 31.4457 70.3827 31.4884 70.332C31.5311 70.2814 31.5631 70.2227 31.5844 70.156C31.6084 70.0867 31.6204 70.0147 31.6204 69.94C31.6204 69.8627 31.6071 69.792 31.5804 69.728C31.5564 69.664 31.5217 69.608 31.4764 69.56C31.4311 69.5094 31.3777 69.4707 31.3164 69.444C31.2551 69.4174 31.1884 69.404 31.1164 69.404C31.0737 69.404 31.0297 69.4107 30.9844 69.424C30.9417 69.4374 30.9004 69.4574 30.8604 69.484C30.8231 69.508 30.7884 69.5374 30.7564 69.572C30.7244 69.6067 30.6977 69.6467 30.6764 69.692V70.124C30.7057 70.196 30.7444 70.26 30.7924 70.316C30.8404 70.372 30.8951 70.4174 30.9564 70.452C31.0177 70.484 31.0817 70.5 31.1484 70.5ZM33.595 71.04C33.4163 71.04 33.2563 71.0107 33.115 70.952C32.9763 70.8934 32.859 70.8134 32.763 70.712C32.667 70.6107 32.5937 70.4947 32.543 70.364C32.495 70.2334 32.471 70.096 32.471 69.952C32.471 69.8054 32.495 69.6667 32.543 69.536C32.5937 69.4054 32.667 69.2894 32.763 69.188C32.859 69.0867 32.9763 69.0067 33.115 68.948C33.2563 68.8894 33.4163 68.86 33.595 68.86C33.7737 68.86 33.9323 68.8894 34.071 68.948C34.2097 69.0067 34.327 69.0867 34.423 69.188C34.519 69.2894 34.5923 69.4054 34.643 69.536C34.6937 69.6667 34.719 69.8054 34.719 69.952C34.719 70.096 34.6937 70.2334 34.643 70.364C34.5923 70.4947 34.519 70.6107 34.423 70.712C34.327 70.8134 34.2097 70.8934 34.071 70.952C33.9323 71.0107 33.7737 71.04 33.595 71.04ZM33.127 69.952C33.127 70.0614 33.147 70.1574 33.187 70.24C33.2297 70.3227 33.2857 70.3867 33.355 70.432C33.4243 70.4774 33.5043 70.5 33.595 70.5C33.683 70.5 33.7617 70.4774 33.831 70.432C33.903 70.384 33.959 70.3187 33.999 70.236C34.039 70.1534 34.059 70.0587 34.059 69.952C34.059 69.8427 34.039 69.7467 33.999 69.664C33.959 69.5814 33.903 69.5174 33.831 69.472C33.7617 69.4267 33.683 69.404 33.595 69.404C33.5043 69.404 33.4243 69.4267 33.355 69.472C33.2857 69.5174 33.2297 69.5814 33.187 69.664C33.147 69.7467 33.127 69.8427 33.127 69.952ZM36.3684 69.448C36.2137 69.448 36.0737 69.4734 35.9484 69.524C35.8231 69.572 35.7324 69.644 35.6764 69.74V71H35.0364V68.9H35.6244V69.324C35.6964 69.1827 35.7897 69.072 35.9044 68.992C36.0191 68.912 36.1391 68.8707 36.2644 68.868C36.2937 68.868 36.3151 68.868 36.3284 68.868C36.3444 68.868 36.3577 68.8694 36.3684 68.872V69.448Z" fill="white"/>
<path d="M32.189 54.2939C31.5858 53.6871 31.1127 52.9625 30.7986 52.165C30.4845 51.3675 30.3363 50.5139 30.3629 49.6566C30.3379 48.7869 30.495 47.9217 30.8241 47.1169C31.1532 46.3121 31.6468 45.5858 32.2731 44.9851C32.894 44.3832 33.6277 43.9111 34.4315 43.5962C35.2353 43.2813 36.0934 43.1298 36.9559 43.1505C37.8985 43.1422 38.8332 43.3243 39.7045 43.6861C40.5757 44.0479 41.3656 44.5819 42.0274 45.2565L40.4893 46.8877C40.037 46.4042 39.4888 46.0214 38.8802 45.764C38.2716 45.5065 37.6161 45.38 36.9559 45.3928C36.3968 45.3796 35.8408 45.4796 35.321 45.6868C34.8012 45.8939 34.3281 46.2041 33.9301 46.5988C33.1621 47.4188 32.7331 48.5016 32.73 49.6276C32.7268 50.7537 33.1498 51.8389 33.9132 52.6632C34.3038 53.0644 34.7728 53.3801 35.2906 53.5905C35.8084 53.801 36.3638 53.9016 36.9221 53.8861C38.2316 53.8845 39.4881 53.3666 40.4215 52.4439V50.5413H36.8039V48.5024H42.5515V53.5777C41.8344 54.3809 40.9557 55.0219 39.9735 55.4582C38.9914 55.8946 37.9282 56.1164 36.8544 56.1089C35.9955 56.1352 35.14 55.9881 34.3387 55.6763C33.5374 55.3645 32.8064 54.8945 32.189 54.2939Z" fill="white"/>
<path d="M51.7647 55.9245L48.975 51.2191H47.437V55.9245H45.1377V43.3714H49.7867C50.3555 43.3325 50.926 43.4136 51.4617 43.6096C51.9974 43.8055 52.4863 44.112 52.8971 44.5092C53.2528 44.8776 53.5317 45.3138 53.7176 45.792C53.9034 46.2702 53.9925 46.7808 53.9794 47.294C54.0055 48.1082 53.7626 48.9081 53.2885 49.5689C52.8145 50.2297 52.136 50.7142 51.359 50.9466L54.5029 55.9235L51.7647 55.9245ZM47.437 45.5286V49.13H49.5332C50.9363 49.13 51.6119 48.3313 51.6119 47.3124C51.6219 47.0711 51.5811 46.8303 51.4923 46.6059C51.4034 46.3816 51.2684 46.1785 51.0961 46.0101C50.9238 45.8418 50.718 45.7119 50.4923 45.6289C50.2666 45.5459 50.0259 45.5117 49.7861 45.5286H47.437Z" fill="white"/>
<path d="M57.7164 54.2939C57.1133 53.687 56.6401 52.9625 56.3261 52.165C56.0121 51.3675 55.864 50.5138 55.8908 49.6566C55.8658 48.7869 56.0229 47.9217 56.3519 47.1169C56.681 46.3121 57.1747 45.5859 57.801 44.9851C58.4219 44.3832 59.1555 43.9111 59.9594 43.5962C60.7632 43.2812 61.6212 43.1298 62.4837 43.1505C63.4263 43.1421 64.3609 43.3243 65.2321 43.6861C66.1032 44.0478 66.8931 44.5819 67.5548 45.2565L66.0167 46.8877C65.5645 46.4042 65.0164 46.0215 64.4078 45.764C63.7993 45.5065 63.1439 45.3801 62.4837 45.3928C61.9246 45.3796 61.3684 45.4795 60.8485 45.6867C60.3286 45.8939 59.8556 46.2041 59.4575 46.5988C58.6895 47.4189 58.2604 48.5016 58.2573 49.6276C58.2542 50.7537 58.6771 51.8389 59.4405 52.6632C59.8312 53.0644 60.3001 53.3801 60.8179 53.5906C61.3357 53.801 61.8912 53.9016 62.4495 53.8861C63.7589 53.8845 65.0155 53.3666 65.9489 52.4439V50.5413H62.3312V48.5024H68.0789V53.5777C67.3618 54.3809 66.4832 55.0218 65.5011 55.4582C64.5191 55.8946 63.456 56.1163 62.3822 56.1089C61.5232 56.1352 60.6677 55.9881 59.8663 55.6764C59.0649 55.3646 58.3339 54.8945 57.7164 54.2939Z" fill="white"/>
<path d="M71.6837 55.9195C71.6846 56.0988 71.6326 56.2744 71.5341 56.4239C71.4356 56.5735 71.2952 56.6903 71.1305 56.7594C70.9659 56.8286 70.7845 56.8471 70.6094 56.8126C70.4343 56.778 70.2734 56.6919 70.147 56.5653C70.0207 56.4387 69.9346 56.2772 69.8997 56.1013C69.8648 55.9255 69.8827 55.7432 69.9511 55.5775C70.0195 55.4119 70.1354 55.2704 70.2839 55.171C70.4325 55.0717 70.607 55.0189 70.7855 55.0194C70.904 55.0167 71.0217 55.0381 71.1317 55.0824C71.2418 55.1266 71.3418 55.1928 71.4257 55.2769C71.5096 55.3609 71.5758 55.4612 71.6201 55.5716C71.6644 55.6821 71.686 55.8004 71.6837 55.9195ZM71.51 55.9195C71.5132 55.8227 71.4967 55.7264 71.4615 55.6363C71.4263 55.5462 71.3731 55.4643 71.3052 55.3957C71.2374 55.327 71.1562 55.2729 71.0669 55.2369C70.9775 55.2008 70.8818 55.1835 70.7855 55.186C70.5937 55.1902 70.4113 55.2696 70.2769 55.4071C70.1426 55.5446 70.0669 55.7293 70.0662 55.922C70.0655 56.1147 70.1397 56.3001 70.2731 56.4386C70.4064 56.5771 70.5883 56.6578 70.78 56.6635C70.8771 56.6645 70.9733 56.6459 71.063 56.6087C71.1527 56.5716 71.2341 56.5166 71.3022 56.4472C71.3704 56.3778 71.4238 56.2953 71.4595 56.2046C71.4952 56.1139 71.5124 56.0169 71.51 55.9195ZM71.0686 56.0886L71.2853 56.4222H71.02L70.8339 56.1348H70.6578V56.4222H70.3921V55.4276H70.8235C71.0942 55.4276 71.2551 55.5659 71.2551 55.7813C71.2587 55.8454 71.2428 55.9092 71.2094 55.9641C71.1761 56.019 71.127 56.0624 71.0686 56.0886ZM70.8058 55.9349C70.9255 55.9349 70.9942 55.8782 70.9942 55.7808C70.9942 55.6833 70.9255 55.6246 70.8058 55.6246H70.6573V55.9349H70.8058Z" fill="white"/>
<path d="M9.48817 45.7658H4.45166V48.1389H9.48817C9.63329 48.139 9.77242 48.197 9.87504 48.3001C9.97766 48.4032 10.0354 48.5431 10.0355 48.6889V55.6351H12.3972V48.6889C12.3963 47.9139 12.0894 47.1709 11.5441 46.6229C10.9988 46.075 10.2594 45.7667 9.48817 45.7658Z" fill="#B6203A"/>
<path d="M15.2651 48.6889V55.6351H17.6267V48.6889C17.6269 48.5431 17.6846 48.4032 17.7872 48.3001C17.8898 48.197 18.0289 48.139 18.1741 48.1389H23.2101V45.7658H18.175C17.4036 45.7665 16.6641 46.0746 16.1185 46.6226C15.573 47.1707 15.2661 47.9138 15.2651 48.6889Z" fill="#B6203A"/>
<path d="M23.21 41.2345H4.45166V43.6076H23.21V41.2345Z" fill="#B6203A"/>
<path d="M7.46709 50.4075H5.10547V55.6351H7.46709V50.4075Z" fill="#B6203A"/>
<path d="M22.5564 50.4075H20.1948V55.6351H22.5564V50.4075Z" fill="#B6203A"/>
<path d="M7.31499 37.4054V38.9574H9.67659V37.4054C9.67659 36.116 9.16682 34.8794 8.25946 33.9676C7.3521 33.0559 6.12143 32.5436 4.83824 32.5436C3.55504 32.5436 2.32449 33.0559 1.41713 33.9676C0.509775 34.8794 0 36.116 0 37.4054V55.6352H2.36112V37.4054C2.36112 36.7453 2.62203 36.1122 3.08654 35.6454C3.55106 35.1787 4.18107 34.9164 4.83799 34.9164C5.49492 34.9164 6.12493 35.1787 6.58944 35.6454C7.05396 36.1122 7.31499 36.7453 7.31499 37.4054Z" fill="#B6203A"/>
<path d="M22.8236 32.5423H22.7741C21.4914 32.5439 20.2616 33.0567 19.3546 33.9682C18.4476 34.8796 17.9375 36.1154 17.936 37.4043V38.9564H20.2972V37.4043C20.2979 36.7445 20.5592 36.1118 21.0235 35.6452C21.4879 35.1787 22.1175 34.9162 22.7741 34.9154H22.8236C23.4803 34.9161 24.1099 35.1785 24.5743 35.6451C25.0387 36.1118 25.2999 36.7444 25.3006 37.4043V55.6341H27.6622V37.4043C27.6607 36.1153 27.1504 34.8795 26.2433 33.968C25.3362 33.0565 24.1064 32.5438 22.8236 32.5423Z" fill="#B6203A"/>
<path d="M12.2002 0V31.6596H15.3067V3.12149H73.8958V61.9949H15.3047V57.8768H12.1982V65.115H77.0002V0H12.2002Z" fill="white"/>
<path d="M32.3605 39.0712C32.5 39.0754 32.6381 39.0411 32.7595 38.9718C32.8672 38.9069 32.9577 38.8169 33.0232 38.7093C33.0932 38.5939 33.1416 38.4666 33.1662 38.3338C33.1945 38.1917 33.2086 38.0471 33.2083 37.9021V35.8538H34.1297V37.9021C34.1316 38.1653 34.0966 38.4275 34.0258 38.6809C33.9619 38.9108 33.853 39.1257 33.7056 39.313C33.5579 39.4963 33.3694 39.6422 33.1553 39.7391C32.9047 39.8482 32.6335 39.9011 32.3605 39.8943C32.0803 39.9024 31.802 39.8464 31.5464 39.7307C31.3322 39.6301 31.1446 39.4804 30.9986 39.2935C30.8551 39.1043 30.7502 38.8885 30.6898 38.6585C30.6233 38.4119 30.5901 38.1576 30.5908 37.9021V35.8538H31.5119V37.9021C31.5114 38.0502 31.5264 38.1979 31.5568 38.3427C31.5848 38.4743 31.635 38.6002 31.7053 38.7147C31.7722 38.8285 31.8688 38.9218 31.9846 38.9844C32.1005 39.0471 32.2312 39.0768 32.3626 39.0703L32.3605 39.0712Z" fill="white"/>
<path d="M35.7637 37.5704V39.8614H34.8428V35.8548H35.5613L37.4202 38.208V35.8548H38.3411V39.8614H37.5987L35.7637 37.5704Z" fill="white"/>
<path d="M39.105 39.8614V35.8548H40.026V39.8614H39.105Z" fill="white"/>
<path d="M41.368 35.8548L42.3084 38.6988L43.2353 35.8548H44.2062L42.6953 39.8614H41.9204L40.3931 35.8548H41.368Z" fill="white"/>
<path d="M47.3772 39.0489V39.8614H44.5752V35.8548H47.3267V36.6673H45.4956V37.4461H47.0679V38.197H45.4956V39.0489H47.3772Z" fill="white"/>
<path d="M47.9385 39.8614V35.8548H49.7355C49.9155 35.8533 50.0932 35.8938 50.255 35.9731C50.4107 36.0499 50.5507 36.1553 50.6677 36.2839C50.7835 36.4112 50.8757 36.5582 50.94 36.7181C51.0046 36.8738 51.0382 37.0407 51.0389 37.2094C51.0398 37.4482 50.9799 37.6832 50.8648 37.8921C50.7538 38.0939 50.5884 38.26 50.3877 38.3715L51.2636 39.8634H50.2243L49.4602 38.5705H48.8579V39.8634L47.9385 39.8614ZM48.8595 37.7624H49.7008C49.7566 37.7612 49.8113 37.7465 49.8603 37.7194C49.9092 37.6924 49.9509 37.6539 49.9818 37.6072C50.064 37.4914 50.1054 37.3515 50.0996 37.2094C50.1077 37.0643 50.0595 36.9216 49.965 36.8115C49.9297 36.7671 49.8854 36.7308 49.8349 36.7051C49.7845 36.6793 49.7291 36.6648 49.6725 36.6623H48.8579L48.8595 37.7624Z" fill="white"/>
<path d="M54.0939 37.0289C54.0584 36.9956 54.0188 36.967 53.9761 36.9439C53.8945 36.8954 53.8101 36.8521 53.7232 36.8141C53.6157 36.7668 53.5051 36.7273 53.3921 36.6957C53.275 36.6627 53.1539 36.6459 53.0323 36.646C52.7024 36.646 52.5374 36.7569 52.5374 36.9787C52.5353 37.0396 52.5539 37.0995 52.5903 37.1483C52.6336 37.1995 52.6873 37.2409 52.7478 37.2696C52.8314 37.3113 52.919 37.3446 53.0091 37.369C53.114 37.3995 53.2355 37.4336 53.3738 37.471C53.5491 37.5184 53.7217 37.5758 53.8905 37.6431C54.0324 37.6981 54.1642 37.7762 54.2809 37.8743C54.3876 37.9659 54.4723 38.0807 54.5283 38.21C54.5901 38.3601 54.6198 38.5215 54.6155 38.6839C54.6216 38.8825 54.5783 39.0794 54.4893 39.2568C54.4098 39.4079 54.2952 39.5375 54.1552 39.6347C54.0103 39.7335 53.8483 39.8043 53.6776 39.8436C53.4956 39.8872 53.309 39.9091 53.1218 39.9087C52.9714 39.9083 52.8213 39.897 52.6725 39.8749C52.5206 39.8523 52.3705 39.819 52.2232 39.7754C52.0787 39.7326 51.9371 39.6808 51.7991 39.6203C51.6668 39.5625 51.54 39.4926 51.4204 39.4114L51.8248 38.6048C51.8693 38.6459 51.9182 38.6818 51.9708 38.7118C52.0684 38.7725 52.1706 38.8254 52.2766 38.8699C52.409 38.9262 52.5451 38.9733 52.6839 39.0111C52.832 39.0521 52.9851 39.0728 53.1388 39.0728C53.4644 39.0728 53.6271 38.9733 53.6271 38.7744C53.6282 38.74 53.6223 38.7057 53.6098 38.6736C53.5973 38.6416 53.5785 38.6124 53.5544 38.5879C53.4952 38.5322 53.4267 38.4874 53.352 38.4557C53.2529 38.4114 53.1507 38.3746 53.0462 38.3457C52.9279 38.3114 52.7987 38.2741 52.6611 38.2329C52.4977 38.1839 52.3383 38.1225 52.1841 38.0494C52.0612 37.9917 51.9484 37.9145 51.8501 37.8206C51.7632 37.7368 51.6956 37.635 51.652 37.5222C51.6067 37.3955 51.5849 37.2615 51.5877 37.1269C51.5839 36.9341 51.6242 36.743 51.7056 36.5684C51.7816 36.4103 51.8908 36.2707 52.0257 36.1591C52.1647 36.046 52.3239 35.9608 52.4949 35.908C52.6775 35.851 52.8678 35.8224 53.059 35.8234C53.1966 35.8234 53.3338 35.8368 53.4688 35.8633C53.6 35.8879 53.7294 35.9211 53.8563 35.9627C53.9748 36.0018 54.0905 36.0488 54.2027 36.1035C54.3096 36.1567 54.4081 36.2089 54.4997 36.2616L54.0939 37.0289Z" fill="white"/>
<path d="M55.1553 39.8614V35.8548H56.0763V39.8614H55.1553Z" fill="white"/>
<path d="M56.8398 39.8614V35.8548H58.3279C58.6237 35.8485 58.9179 35.9023 59.1925 36.013C59.4252 36.1075 59.6349 36.2515 59.807 36.4351C59.9791 36.6187 60.1097 36.8375 60.1898 37.0766C60.275 37.3262 60.3176 37.5885 60.3159 37.8524C60.3198 38.1344 60.2722 38.4147 60.1754 38.6794C60.0879 38.9164 59.951 39.1319 59.774 39.3115C59.5948 39.4894 59.3805 39.6278 59.145 39.7178C58.884 39.8165 58.6068 39.8652 58.3279 39.8614H56.8398ZM59.3781 37.8524C59.3802 37.6889 59.3564 37.5261 59.3078 37.3701C59.2648 37.2326 59.1952 37.105 59.103 36.9946C59.0125 36.8892 58.8989 36.8061 58.7713 36.7519C58.6302 36.6934 58.4786 36.6646 58.326 36.6673H57.7588V39.0489H58.326C58.4805 39.0519 58.6338 39.021 58.7753 38.9584C58.9025 38.9011 59.015 38.8151 59.1039 38.7073C59.1943 38.5951 59.2627 38.4669 59.3058 38.3293C59.3549 38.1752 59.3793 38.0142 59.3781 37.8524Z" fill="white"/>
<path d="M61.8041 35.8548H62.635L64.0899 39.8614H63.1462L62.8374 38.9663H61.5961L61.2928 39.8614H60.3496L61.8041 35.8548ZM62.686 38.3263L62.2197 36.91L61.7422 38.3263H62.686Z" fill="white"/>
<path d="M64.4829 39.8614V35.8548H65.9711C66.2671 35.8485 66.5613 35.9023 66.8362 36.0129C67.0688 36.1076 67.2783 36.2516 67.4503 36.4352C67.6224 36.6188 67.7528 36.8376 67.8328 37.0766C67.9181 37.3262 67.9608 37.5885 67.9591 37.8524C67.963 38.1344 67.9152 38.4147 67.8185 38.6794C67.7309 38.9164 67.5941 39.1318 67.4171 39.3115C67.2379 39.4894 67.0236 39.6278 66.7881 39.7177C66.5271 39.8165 66.25 39.8652 65.9711 39.8614H64.4829ZM67.0213 37.8524C67.0233 37.6889 66.9996 37.5261 66.951 37.3701C66.9084 37.2324 66.8387 37.1047 66.746 36.9946C66.6556 36.8893 66.5424 36.8063 66.415 36.7519C66.2738 36.6935 66.1223 36.6647 65.9696 36.6673H65.4025V39.0489H65.9696C66.1242 39.0519 66.2775 39.021 66.419 38.9584C66.5462 38.901 66.6586 38.8151 66.7476 38.7073C66.8381 38.5953 66.9066 38.467 66.9495 38.3293C66.9982 38.1751 67.0228 38.0142 67.0213 37.8524Z" fill="white"/>
</svg>
