<svg width="28" height="24" viewBox="0 0 28 24" fill="none" xmlns="http://www.w3.org/2000/svg">
<path d="M9.48817 13.7658H4.45166V16.1389H9.48817C9.63329 16.139 9.77242 16.197 9.87504 16.3001C9.97766 16.4032 10.0354 16.5431 10.0355 16.6889V23.6351H12.3972V16.6889C12.3963 15.9139 12.0894 15.1709 11.5441 14.6229C10.9988 14.075 10.2594 13.7667 9.48817 13.7658Z" fill="#B6203A"/>
<path d="M15.2651 16.6889V23.6351H17.6267V16.6889C17.6269 16.5431 17.6846 16.4032 17.7872 16.3001C17.8898 16.197 18.0289 16.139 18.1741 16.1389H23.2101V13.7658H18.175C17.4036 13.7665 16.6641 14.0746 16.1185 14.6226C15.573 15.1707 15.2661 15.9138 15.2651 16.6889Z" fill="#B6203A"/>
<path d="M23.21 9.2345H4.45166V11.6076H23.21V9.2345Z" fill="#B6203A"/>
<path d="M7.46709 18.4075H5.10547V23.6351H7.46709V18.4075Z" fill="#B6203A"/>
<path d="M22.5564 18.4075H20.1948V23.6351H22.5564V18.4075Z" fill="#B6203A"/>
<path d="M7.31499 5.40539V6.95742H9.67659V5.40539C9.67659 4.11596 9.16682 2.87938 8.25946 1.96762C7.3521 1.05586 6.12143 0.543616 4.83824 0.543616C3.55504 0.543616 2.32449 1.05586 1.41713 1.96762C0.509775 2.87938 0 4.11596 0 5.40539V23.6352H2.36112V5.40539C2.36112 4.74528 2.62203 4.11221 3.08654 3.64544C3.55106 3.17867 4.18107 2.91644 4.83799 2.91644C5.49492 2.91644 6.12493 3.17867 6.58944 3.64544C7.05396 4.11221 7.31499 4.74528 7.31499 5.40539Z" fill="#B6203A"/>
<path d="M22.8236 0.542335H22.7741C21.4914 0.543914 20.2616 1.05669 19.3546 1.96816C18.4476 2.87964 17.9375 4.11539 17.936 5.40435V6.95638H20.2972V5.40435C20.2979 4.74448 20.5592 4.11185 21.0235 3.64525C21.4879 3.17865 22.1175 2.91619 22.7741 2.9154H22.8236C23.4803 2.91606 24.1099 3.1785 24.5743 3.64513C25.0387 4.11175 25.2999 4.74444 25.3006 5.40435V23.6341H27.6622V5.40435C27.6607 4.1153 27.1504 2.87947 26.2433 1.96798C25.3362 1.05649 24.1064 0.543782 22.8236 0.542335Z" fill="#B6203A"/>
</svg>
