<svg width="25" height="25" viewBox="0 0 25 25" fill="none" xmlns="http://www.w3.org/2000/svg">
<path d="M20.2232 3.02994C21.1613 2.71724 22.0538 3.60973 21.7411 4.54784L16.6845 19.7176C16.3561 20.7028 15.0163 20.8341 14.5029 19.9313L11.4078 14.4882C11.1409 14.0188 10.7522 13.6301 10.2828 13.3632L4.83973 10.2681C3.937 9.7548 4.06824 8.41494 5.05342 8.08654L20.2232 3.02994Z" stroke="#2A2B2A" stroke-width="1.5"/>
<path d="M20.2232 3.02994C21.1613 2.71724 22.0538 3.60973 21.7411 4.54784L16.6845 19.7176C16.3561 20.7028 15.0163 20.8341 14.5029 19.9313L11.4078 14.4882C11.1409 14.0188 10.7522 13.6301 10.2828 13.3632L4.83973 10.2681C3.937 9.7548 4.06824 8.41494 5.05342 8.08654L20.2232 3.02994Z" stroke="black" stroke-opacity="0.2" stroke-width="1.5"/>
<path d="M13.2852 11.4854L11.2852 13.4854" stroke="#2A2B2A" stroke-width="1.5" stroke-linecap="round" stroke-linejoin="round"/>
<path d="M13.2852 11.4854L11.2852 13.4854" stroke="black" stroke-opacity="0.2" stroke-width="1.5" stroke-linecap="round" stroke-linejoin="round"/>
</svg>
