<svg width="52" height="58" viewBox="0 0 52 58" fill="none" xmlns="http://www.w3.org/2000/svg">
<g clip-path="url(#clip0_537_18307)">
<path d="M16 34.3953C16 33.2779 16.8954 32.372 18 32.372H34C35.1046 32.372 36 33.2779 36 34.3953C36 35.5127 35.1046 36.4185 34 36.4185H18C16.8954 36.4185 16 35.5127 16 34.3953Z" fill="#2A2B2A"/>
<path d="M16 34.3953C16 33.2779 16.8954 32.372 18 32.372H34C35.1046 32.372 36 33.2779 36 34.3953C36 35.5127 35.1046 36.4185 34 36.4185H18C16.8954 36.4185 16 35.5127 16 34.3953Z" fill="black" fill-opacity="0.2"/>
<path fill-rule="evenodd" clip-rule="evenodd" d="M18 -6.10352e-05C19.1046 -6.10352e-05 20 0.905781 20 2.02319V5.4239C21.7846 5.39529 23.7676 5.39529 25.9705 5.39529H26.0295C28.2324 5.39529 30.2154 5.39529 32 5.4239V2.02319C32 0.905781 32.8954 -6.10352e-05 34 -6.10352e-05C35.1046 -6.10352e-05 36 0.905781 36 2.02319V5.56681C40.0318 5.82251 43.1292 6.48339 45.6794 8.35775C46.9811 9.3145 48.1258 10.4726 49.0716 11.7894C51.2099 14.7667 51.7505 18.4814 51.9217 23.5353C52 25.8478 52 28.5384 52 31.6679V31.7273C52 34.8568 52 37.5474 51.9217 39.8599C51.7505 44.9139 51.2099 48.6285 49.0716 51.6058C48.1258 52.9227 46.9811 54.0807 45.6794 55.0375C42.7363 57.2006 39.0643 57.7476 34.0685 57.9207C31.7824 57.9999 29.1226 57.9999 26.0288 57.9999H25.8793C20.9819 58 17.143 58 14.0973 57.6662C10.9892 57.3255 8.47082 56.6179 6.32063 55.0375C5.01891 54.0807 3.87416 52.9227 2.92841 51.6058C1.3662 49.4306 0.666683 46.883 0.329942 43.7388C-3.90609e-05 40.6576 -2.17329e-05 36.7741 3.60596e-07 31.8197L6.78488e-07 31.6678C-1.16241e-07 28.5383 -7.50025e-07 25.8478 0.0783159 23.5353C0.24948 18.4814 0.790123 14.7667 2.92841 11.7894C3.87416 10.4726 5.01891 9.3145 6.32063 8.35775C8.87081 6.48339 11.9682 5.82251 16 5.56681V2.02319C16 0.905781 16.8954 -6.10352e-05 18 -6.10352e-05ZM16 9.62322C12.3679 9.87591 10.2714 10.4557 8.67177 11.6314C7.70963 12.3386 6.86351 13.1946 6.16447 14.1679C5.00227 15.7861 4.42912 17.907 4.17934 21.5813H47.8207C47.5709 17.907 46.9977 15.7861 45.8355 14.1679C45.1365 13.1946 44.2904 12.3386 43.3282 11.6314C41.7286 10.4557 39.6321 9.87591 36 9.62322V10.1162C36 11.2336 35.1046 12.1395 34 12.1395C32.8954 12.1395 32 11.2336 32 10.1162V9.4709C30.2411 9.44193 28.2602 9.4418 26 9.4418C23.7398 9.4418 21.7589 9.44193 20 9.4709V10.1162C20 11.2336 19.1046 12.1395 18 12.1395C16.8954 12.1395 16 11.2336 16 10.1162V9.62322ZM47.9712 25.6278H4.02876C4.00013 27.4072 4 29.4112 4 31.6976C4 36.8005 4.00275 40.4651 4.30667 43.3029C4.60654 46.1028 5.18024 47.8569 6.16447 49.2273C6.86351 50.2007 7.70963 51.0566 8.67177 51.7638C10.0264 52.7595 11.7604 53.3398 14.5281 53.6432C17.3333 53.9506 20.9558 53.9534 26 53.9534C28.2623 53.9534 30.2448 53.9533 32.0049 53.9242C32.0165 52.6438 32.0559 51.7012 32.1888 50.8525C33.2279 44.2151 38.3737 39.0096 44.9347 37.9584C45.7736 37.8239 46.7054 37.7841 47.9712 37.7723C47.9999 35.9917 48 33.9862 48 31.6976C48 29.4112 47.9999 27.4072 47.9712 25.6278ZM47.8202 41.8214C46.7403 41.834 46.1072 41.8674 45.5604 41.9551C40.711 42.7321 36.9076 46.5796 36.1395 51.4855C36.0529 52.0386 36.0199 52.6791 36.0074 53.7715C39.635 53.5185 41.7297 52.9387 43.3282 51.7638C44.2904 51.0566 45.1365 50.2007 45.8355 49.2273C46.9969 47.6102 47.5701 45.4912 47.8202 41.8214Z" fill="#2A2B2A"/>
<path fill-rule="evenodd" clip-rule="evenodd" d="M18 -6.10352e-05C19.1046 -6.10352e-05 20 0.905781 20 2.02319V5.4239C21.7846 5.39529 23.7676 5.39529 25.9705 5.39529H26.0295C28.2324 5.39529 30.2154 5.39529 32 5.4239V2.02319C32 0.905781 32.8954 -6.10352e-05 34 -6.10352e-05C35.1046 -6.10352e-05 36 0.905781 36 2.02319V5.56681C40.0318 5.82251 43.1292 6.48339 45.6794 8.35775C46.9811 9.3145 48.1258 10.4726 49.0716 11.7894C51.2099 14.7667 51.7505 18.4814 51.9217 23.5353C52 25.8478 52 28.5384 52 31.6679V31.7273C52 34.8568 52 37.5474 51.9217 39.8599C51.7505 44.9139 51.2099 48.6285 49.0716 51.6058C48.1258 52.9227 46.9811 54.0807 45.6794 55.0375C42.7363 57.2006 39.0643 57.7476 34.0685 57.9207C31.7824 57.9999 29.1226 57.9999 26.0288 57.9999H25.8793C20.9819 58 17.143 58 14.0973 57.6662C10.9892 57.3255 8.47082 56.6179 6.32063 55.0375C5.01891 54.0807 3.87416 52.9227 2.92841 51.6058C1.3662 49.4306 0.666683 46.883 0.329942 43.7388C-3.90609e-05 40.6576 -2.17329e-05 36.7741 3.60596e-07 31.8197L6.78488e-07 31.6678C-1.16241e-07 28.5383 -7.50025e-07 25.8478 0.0783159 23.5353C0.24948 18.4814 0.790123 14.7667 2.92841 11.7894C3.87416 10.4726 5.01891 9.3145 6.32063 8.35775C8.87081 6.48339 11.9682 5.82251 16 5.56681V2.02319C16 0.905781 16.8954 -6.10352e-05 18 -6.10352e-05ZM16 9.62322C12.3679 9.87591 10.2714 10.4557 8.67177 11.6314C7.70963 12.3386 6.86351 13.1946 6.16447 14.1679C5.00227 15.7861 4.42912 17.907 4.17934 21.5813H47.8207C47.5709 17.907 46.9977 15.7861 45.8355 14.1679C45.1365 13.1946 44.2904 12.3386 43.3282 11.6314C41.7286 10.4557 39.6321 9.87591 36 9.62322V10.1162C36 11.2336 35.1046 12.1395 34 12.1395C32.8954 12.1395 32 11.2336 32 10.1162V9.4709C30.2411 9.44193 28.2602 9.4418 26 9.4418C23.7398 9.4418 21.7589 9.44193 20 9.4709V10.1162C20 11.2336 19.1046 12.1395 18 12.1395C16.8954 12.1395 16 11.2336 16 10.1162V9.62322ZM47.9712 25.6278H4.02876C4.00013 27.4072 4 29.4112 4 31.6976C4 36.8005 4.00275 40.4651 4.30667 43.3029C4.60654 46.1028 5.18024 47.8569 6.16447 49.2273C6.86351 50.2007 7.70963 51.0566 8.67177 51.7638C10.0264 52.7595 11.7604 53.3398 14.5281 53.6432C17.3333 53.9506 20.9558 53.9534 26 53.9534C28.2623 53.9534 30.2448 53.9533 32.0049 53.9242C32.0165 52.6438 32.0559 51.7012 32.1888 50.8525C33.2279 44.2151 38.3737 39.0096 44.9347 37.9584C45.7736 37.8239 46.7054 37.7841 47.9712 37.7723C47.9999 35.9917 48 33.9862 48 31.6976C48 29.4112 47.9999 27.4072 47.9712 25.6278ZM47.8202 41.8214C46.7403 41.834 46.1072 41.8674 45.5604 41.9551C40.711 42.7321 36.9076 46.5796 36.1395 51.4855C36.0529 52.0386 36.0199 52.6791 36.0074 53.7715C39.635 53.5185 41.7297 52.9387 43.3282 51.7638C44.2904 51.0566 45.1365 50.2007 45.8355 49.2273C46.9969 47.6102 47.5701 45.4912 47.8202 41.8214Z" fill="black" fill-opacity="0.2"/>
</g>
<defs>
<clipPath id="clip0_537_18307">
<rect width="52" height="58" fill="white"/>
</clipPath>
</defs>
</svg>
