<svg width="34" height="34" viewBox="0 0 34 34" fill="none" xmlns="http://www.w3.org/2000/svg">
<path d="M16.9574 31.1668C24.7815 31.1668 31.1241 24.8242 31.1241 17.0002C31.1241 9.17613 24.7815 2.8335 16.9574 2.8335C9.1334 2.8335 2.79077 9.17613 2.79077 17.0002C2.79077 24.8242 9.1334 31.1668 16.9574 31.1668Z" stroke="#2A2B2A" stroke-width="1.5" stroke-linecap="round" stroke-linejoin="round"/>
<path d="M16.9574 31.1668C24.7815 31.1668 31.1241 24.8242 31.1241 17.0002C31.1241 9.17613 24.7815 2.8335 16.9574 2.8335C9.1334 2.8335 2.79077 9.17613 2.79077 17.0002C2.79077 24.8242 9.1334 31.1668 16.9574 31.1668Z" stroke="black" stroke-opacity="0.2" stroke-width="1.5" stroke-linecap="round" stroke-linejoin="round"/>
<path d="M24.0834 9.9165L9.91675 24.0832" stroke="#2A2B2A" stroke-width="1.5" stroke-linecap="round" stroke-linejoin="round"/>
<path d="M24.0834 9.9165L9.91675 24.0832" stroke="black" stroke-opacity="0.2" stroke-width="1.5" stroke-linecap="round" stroke-linejoin="round"/>
<path d="M9.91675 9.9165L24.0834 24.0832" stroke="#2A2B2A" stroke-width="1.5" stroke-linecap="round" stroke-linejoin="round"/>
<path d="M9.91675 9.9165L24.0834 24.0832" stroke="black" stroke-opacity="0.2" stroke-width="1.5" stroke-linecap="round" stroke-linejoin="round"/>
</svg>
