<svg width="23" height="24" viewBox="0 0 23 24" fill="none" xmlns="http://www.w3.org/2000/svg">
<g clip-path="url(#clip0_116_723)">
<path d="M21.458 6.22743C20.4296 4.46562 19.0347 3.07067 17.2728 2.04233C15.5106 1.01404 13.587 0.5 11.5003 0.5C9.41392 0.5 7.48967 1.01404 5.7278 2.04233C3.96582 3.07051 2.57088 4.46546 1.54248 6.22743C0.514039 7.98952 0 9.91377 0 12C0 14.0864 0.514196 16.0103 1.54233 17.7725C2.57067 19.5343 3.96562 20.9293 5.72759 21.9577C7.48967 22.986 9.41377 23.5001 11.5001 23.5001C13.5865 23.5001 15.5108 22.986 17.2728 21.9577C19.0346 20.9296 20.4295 19.5343 21.4578 17.7725C22.486 16.0105 22.9999 14.0863 22.9999 12C23 9.91356 22.486 7.98925 21.458 6.22743ZM18.5529 16.0878C17.8242 17.3356 16.836 18.3238 15.5882 19.0529C14.3404 19.7816 12.9778 20.1456 11.5002 20.1456C10.0229 20.1456 8.6602 19.7816 7.41226 19.0529C6.16448 18.3238 5.17626 17.3356 4.44756 16.0878C3.71869 14.8401 3.35439 13.4774 3.35439 12C3.35439 10.5225 3.71885 9.15988 4.44756 7.9121C5.17611 6.66432 6.16459 5.6759 7.41226 4.94724C8.66004 4.21848 10.0227 3.85423 11.5002 3.85423C12.9778 3.85423 14.3404 4.21848 15.5882 4.94724C16.836 5.67595 17.8243 6.66432 18.5529 7.9121C19.2817 9.15988 19.6458 10.5225 19.6458 12C19.6458 13.4774 19.2817 14.8401 18.5529 16.0878Z" fill="white"/>
<path d="M16.292 11.9998H13.4172V6.72862C13.4172 6.5888 13.372 6.47409 13.2823 6.3842C13.1929 6.29456 13.078 6.24951 12.9384 6.24951H10.063C9.92332 6.24951 9.80846 6.29456 9.71862 6.3842C9.62872 6.47414 9.58383 6.5888 9.58383 6.72862V11.9996H6.7087C6.48916 11.9996 6.33937 12.0995 6.25944 12.299C6.17951 12.4889 6.21465 12.6634 6.36428 12.8233L11.1561 17.615C11.266 17.7047 11.3807 17.7496 11.5005 17.7496C11.6201 17.7496 11.735 17.7047 11.845 17.615L16.6218 12.8384C16.7215 12.7187 16.7713 12.5984 16.7713 12.479C16.7713 12.3394 16.7265 12.2245 16.6364 12.1344C16.5467 12.0447 16.4319 11.9998 16.292 11.9998Z" fill="white"/>
</g>
<defs>
<clipPath id="clip0_116_723">
<rect width="23" height="23" fill="white" transform="translate(0 0.5)"/>
</clipPath>
</defs>
</svg>
