<svg width="55" height="55" viewBox="0 0 55 55" fill="none" xmlns="http://www.w3.org/2000/svg">
<path d="M50.4173 27.4999V20.6249C50.4173 9.16658 45.834 4.58325 34.3756 4.58325H20.6256C9.16732 4.58325 4.58398 9.16658 4.58398 20.6249V34.3749C4.58398 45.8332 9.16732 50.4166 20.6256 50.4166H27.5006" stroke="#FCC306" stroke-width="3" stroke-linecap="round" stroke-linejoin="round"/>
<path d="M48.033 40.8833L44.2976 42.1437C43.2663 42.4875 42.4413 43.2896 42.0976 44.3437L40.8372 48.0792C39.7601 51.3104 35.2226 51.2417 34.2143 48.0104L29.9747 34.375C29.1497 31.6708 31.6476 29.15 34.3288 29.9979L47.9872 34.2375C51.1955 35.2458 51.2413 39.8062 48.033 40.8833Z" stroke="#FCC306" stroke-width="3" stroke-linecap="round" stroke-linejoin="round"/>
</svg>
