<svg width="154" height="154" viewBox="0 0 154 154" fill="none" xmlns="http://www.w3.org/2000/svg">
<g filter="url(#filter0_d_760_29631)">
<rect x="19.4941" y="19.6899" width="114.747" height="114.011" rx="57.0056" fill="#FCC306"/>
</g>
<path d="M43.5763 111.691L48.0162 107.522L49.7009 109.315L41.9365 116.604L40.6011 115.183L41.7927 107.296L37.2215 111.587L35.5369 109.794L43.3013 102.505L44.6777 103.97L43.5763 111.691ZM39.8481 96.5036C40.2218 97.2109 40.4278 97.9219 40.4661 98.6366C40.4909 99.3471 40.3875 100.029 40.156 100.683C39.9109 101.332 39.5637 101.917 39.1145 102.437C38.6563 102.961 38.1221 103.384 37.5118 103.706C36.8839 104.038 36.2261 104.238 35.5386 104.307C34.8464 104.367 34.1695 104.306 33.5077 104.124C32.8324 103.938 32.2147 103.625 31.6546 103.186C31.0944 102.746 30.6345 102.186 30.2749 101.506C29.9058 100.807 29.7089 100.103 29.6842 99.3921C29.6459 98.6774 29.7493 97.9953 29.9943 97.3459C30.2347 96.6876 30.584 96.0963 31.0421 95.5718C31.4914 95.0521 32.0123 94.6358 32.6049 94.323C33.2329 93.9916 33.8906 93.7914 34.5781 93.7225C35.2656 93.6536 35.947 93.7123 36.6223 93.8985C37.2888 94.0895 37.9065 94.4023 38.4755 94.8369C39.0309 95.2673 39.4885 95.8229 39.8481 96.5036ZM36.3683 101.478C36.7309 101.286 37.0567 101.047 37.3455 100.758C37.6256 100.475 37.8446 100.162 38.0025 99.8182C38.1557 99.4659 38.2302 99.0931 38.2259 98.6996C38.2216 98.3062 38.1144 97.9105 37.9042 97.5127C37.6846 97.0972 37.4135 96.7767 37.0908 96.5513C36.7593 96.3306 36.4027 96.1909 36.0211 96.1323C35.6394 96.0737 35.2549 96.0844 34.8674 96.1646C34.4664 96.2405 34.089 96.3719 33.7352 96.5586C33.3726 96.75 33.0512 96.9875 32.7712 97.2709C32.4912 97.5544 32.2745 97.8723 32.1213 98.2245C31.9592 98.5814 31.8847 98.9542 31.8979 99.343C31.911 99.7318 32.0203 100.121 32.2259 100.51C32.4454 100.925 32.7165 101.246 33.0392 101.471C33.3572 101.688 33.7094 101.83 34.0957 101.897C34.4685 101.96 34.8554 101.954 35.2564 101.878C35.6438 101.798 36.0145 101.665 36.3683 101.478ZM26.6703 84.5859L27.4356 87.7336L35.6875 85.7299L36.2685 88.1198L28.0166 90.1235L28.7854 93.2858L26.686 93.7955L24.5709 85.0957L26.6703 84.5859ZM34.7404 81.1175L24.1151 81.8785L23.9391 79.4254L34.5643 78.6643L34.7404 81.1175ZM29.1297 76.3648C28.4833 76.2944 27.8649 76.1064 27.2744 75.8007C26.6739 75.4939 26.145 75.0843 25.6877 74.5719C25.2304 74.0595 24.8884 73.459 24.6615 72.7706C24.4247 72.081 24.3518 71.3189 24.4428 70.484C24.5511 69.4901 24.8586 68.6537 25.3652 67.9748C25.8729 67.2859 26.4893 66.7999 27.2144 66.5169L28.3223 68.5383C27.9271 68.6561 27.6105 68.8378 27.3724 69.0834C27.1355 69.3191 26.9599 69.5916 26.8457 69.901C26.7226 70.1993 26.6454 70.4926 26.614 70.7809C26.5631 71.248 26.6131 71.6658 26.7642 72.0342C26.9052 72.4015 27.1174 72.7163 27.4008 72.9785C27.6841 73.2406 28.0088 73.447 28.3747 73.5975C28.7407 73.7479 29.1126 73.8438 29.4904 73.8849C29.9081 73.9304 30.3178 73.9097 30.7197 73.8227C31.1216 73.7358 31.4847 73.5893 31.809 73.3832C32.1344 73.1673 32.4055 72.8951 32.6224 72.5667C32.8293 72.2373 32.9555 71.8639 33.001 71.4464C33.0335 71.1483 33.0168 70.8397 32.951 70.5208C32.8851 70.2019 32.7618 69.9018 32.5812 69.6207C32.3916 69.3285 32.1305 69.0939 31.7976 68.9168L33.1936 67.0475C33.6879 67.3125 34.093 67.7036 34.409 68.2208C34.7249 68.7379 34.9493 69.3104 35.0821 69.9384C35.206 70.5553 35.2361 71.1569 35.1722 71.7433C35.0888 72.5086 34.8578 73.1974 34.4791 73.8099C34.0916 74.4113 33.6139 74.9174 33.0459 75.3282C32.4691 75.728 31.8434 76.0219 31.1689 76.2099C30.4856 76.3868 29.8058 76.4385 29.1297 76.3648ZM35.9081 65.842L25.6948 62.8151L26.3941 60.4571L36.6074 63.484L35.9081 65.842ZM29.1298 54.1304L30.3232 51.7592L41.4847 53.2759L40.352 55.5265L37.85 55.1916L36.36 58.1522L38.1271 59.9473L36.9944 62.1979L29.1298 54.1304ZM36.1534 54.7917L31.9347 54.0636L35.0207 57.0423L36.1534 54.7917ZM40.5854 42.6072C40.5278 42.5979 40.4028 42.6298 40.2102 42.7028C40.01 42.7694 39.777 42.8671 39.511 42.996C39.2451 43.1249 38.9746 43.2826 38.6993 43.469C38.4241 43.6554 38.1833 43.8709 37.9768 44.1154C37.7059 44.4362 37.5535 44.7329 37.5198 45.0053C37.4785 45.2713 37.5724 45.5011 37.8018 45.6945C37.9852 45.8493 38.1853 45.9069 38.402 45.8673C38.6251 45.8201 38.8852 45.7058 39.1821 45.5247C39.4715 45.337 39.8245 45.105 40.2411 44.8286C40.8174 44.4252 41.3662 44.1163 41.8875 43.9019C42.4012 43.6812 42.8947 43.6004 43.3682 43.6598C43.8482 43.7114 44.3404 43.9501 44.8449 44.3757C45.3035 44.7626 45.6224 45.1755 45.8015 45.6144C45.973 46.0469 46.0356 46.4921 45.9892 46.9501C45.9416 47.394 45.8088 47.838 45.5909 48.2821C45.3653 48.7197 45.088 49.1334 44.759 49.523C44.4235 49.9203 44.0402 50.2967 43.6089 50.6524C43.1765 50.9941 42.7264 51.2946 42.2586 51.5541C41.7831 51.8071 41.3029 52.0038 40.8179 52.1441L39.875 49.9357C39.939 49.9374 40.0955 49.8994 40.3445 49.8216C40.5858 49.7373 40.867 49.6213 41.1881 49.4736C41.508 49.3117 41.839 49.1135 42.1811 48.8788C42.5233 48.6442 42.8266 48.3702 43.0911 48.057C43.3749 47.7209 43.5311 47.4274 43.5595 47.1767C43.5944 46.9184 43.5163 46.7086 43.3252 46.5474C43.1189 46.3732 42.8841 46.3257 42.6211 46.4047C42.3645 46.476 42.0646 46.622 41.7212 46.8425C41.3844 47.0555 40.9973 47.3046 40.5601 47.5898C39.9879 47.9574 39.4675 48.2249 38.999 48.3922C38.537 48.5518 38.1006 48.5958 37.69 48.5241C37.2858 48.4447 36.8773 48.2309 36.4645 47.8827C35.8912 47.3991 35.5225 46.8591 35.3585 46.2628C35.1932 45.6525 35.2048 45.0343 35.3931 44.4082C35.5738 43.7757 35.8931 43.1882 36.3512 42.6458C36.6737 42.2638 37.0293 41.9358 37.4177 41.6618C37.8127 41.3801 38.208 41.1445 38.6036 40.955C39.0057 40.7578 39.3787 40.595 39.7228 40.4666L40.5854 42.6072ZM49.5626 40.4063L48.3634 38.6099L52.2073 36.0465L53.4065 37.8429L49.5626 40.4063ZM61.0786 31.2542L62.7602 37.1063L60.3952 37.7851L57.4545 27.5511L59.3291 27.0131L65.8048 31.6765L64.0735 25.6515L66.4385 24.9727L69.3792 35.2066L67.4469 35.7612L61.0786 31.2542ZM76.294 34.9021C75.4939 34.908 74.7676 34.7634 74.1152 34.4683C73.4727 34.1631 72.9145 33.7574 72.4406 33.251C71.9766 32.7345 71.6172 32.1573 71.3624 31.5193C71.1075 30.8714 70.9774 30.2025 70.9723 29.5127C70.9669 28.8028 71.0919 28.1271 71.3472 27.4853C71.6124 26.8435 71.9783 26.2709 72.4446 25.7675C72.9209 25.2541 73.483 24.8501 74.131 24.5553C74.779 24.2606 75.488 24.1104 76.2582 24.1047C77.0484 24.0988 77.7647 24.2485 78.4071 24.5537C79.0595 24.8488 79.6177 25.2545 80.0817 25.771C80.5557 26.2874 80.9201 26.8696 81.1751 27.5175C81.4299 28.1555 81.5598 28.8094 81.5649 29.4792C81.5702 30.189 81.4452 30.8648 81.1899 31.5066C80.9347 32.1483 80.5689 32.7259 80.0926 33.2393C79.6162 33.7427 79.0541 34.1468 78.4062 34.4515C77.7683 34.7462 77.0642 34.8964 76.294 34.9021ZM73.478 29.5241C73.4811 29.934 73.5441 30.3334 73.667 30.7224C73.7899 31.1014 73.9675 31.4401 74.1998 31.7383C74.4421 32.0364 74.7389 32.2742 75.0904 32.4515C75.4418 32.6289 75.8425 32.7159 76.2926 32.7126C76.7627 32.7091 77.1722 32.6161 77.5209 32.4335C77.8695 32.241 78.1577 31.9889 78.3855 31.6773C78.6132 31.3657 78.7806 31.0195 78.8878 30.6388C79.0049 30.248 79.062 29.8527 79.059 29.4528C79.0559 29.0429 78.9929 28.6484 78.8701 28.2694C78.7472 27.8904 78.5646 27.5518 78.3223 27.2537C78.0799 26.9456 77.7831 26.7078 77.4317 26.5405C77.0804 26.3731 76.6847 26.291 76.2446 26.2943C75.7745 26.2978 75.3651 26.3908 75.0163 26.5733C74.6776 26.7558 74.3894 27.0029 74.1517 27.3146C73.9239 27.6162 73.7514 27.9624 73.6343 28.3532C73.5271 28.7339 73.475 29.1242 73.478 29.5241ZM92.9382 28.6837L89.7894 27.9172L87.7805 36.1641L85.3898 35.5821L87.3986 27.3352L84.2353 26.5652L84.7463 24.467L93.4493 26.5856L92.9382 28.6837ZM92.3149 37.4405L96.5027 27.6506L98.7652 28.6176L94.5774 38.4075L92.3149 37.4405ZM99.1188 34.6377C99.4783 34.0963 99.9296 33.6337 100.473 33.25C101.021 32.8579 101.628 32.5767 102.293 32.4062C102.959 32.2358 103.65 32.2081 104.366 32.3231C105.087 32.4298 105.798 32.7154 106.498 33.1799C107.331 33.7328 107.933 34.3902 108.304 35.152C108.683 35.9193 108.831 36.6899 108.75 37.4636L106.444 37.5181C106.521 37.1131 106.505 36.7485 106.396 36.4243C106.296 36.1056 106.134 35.8245 105.912 35.5809C105.703 35.3346 105.478 35.1312 105.237 34.9708C104.845 34.711 104.451 34.5634 104.054 34.5281C103.663 34.4845 103.285 34.5283 102.922 34.6593C102.559 34.7903 102.227 34.9837 101.925 35.2394C101.623 35.4951 101.367 35.7812 101.157 36.0977C100.924 36.4475 100.754 36.8208 100.647 37.2176C100.54 37.6143 100.503 38.0039 100.537 38.3865C100.58 38.7746 100.697 39.1404 100.889 39.4839C101.087 39.819 101.36 40.1027 101.71 40.3349C101.96 40.5008 102.242 40.6278 102.556 40.7159C102.87 40.804 103.193 40.8325 103.526 40.8013C103.872 40.7674 104.201 40.6433 104.511 40.4292L105.531 42.5276C105.068 42.8446 104.535 43.0245 103.93 43.0673C103.325 43.1101 102.713 43.0461 102.094 42.8755C101.489 42.702 100.941 42.4521 100.449 42.1259C99.8074 41.7001 99.3014 41.1784 98.9312 40.5608C98.5748 39.9404 98.3446 39.2837 98.2406 38.5907C98.1504 37.8949 98.1767 37.2044 98.3195 36.5192C98.4763 35.8313 98.7427 35.2041 99.1188 34.6377ZM105.354 45.4935L112.753 37.8343L114.523 39.5428L107.124 47.2019L105.354 45.4935ZM118.859 44.8316L120.425 46.976L113.977 56.2074L112.492 54.1721L113.932 52.1005L111.978 49.4231L109.573 50.1742L108.087 48.1389L118.859 44.8316ZM115.063 50.7746L117.638 47.3561L113.577 48.7393L115.063 50.7746ZM123.897 60.2545C123.931 60.2075 123.96 60.0817 123.982 59.877C124.014 59.6685 124.032 59.4166 124.038 59.1212C124.044 58.8259 124.026 58.5133 123.985 58.1836C123.944 57.8538 123.861 57.5415 123.737 57.2466C123.574 56.8596 123.379 56.5892 123.151 56.4354C122.933 56.2778 122.685 56.2572 122.409 56.3735C122.187 56.4666 122.045 56.6186 121.982 56.8295C121.923 57.0497 121.907 57.3332 121.933 57.6799C121.969 58.0228 122.016 58.4425 122.073 58.9391C122.171 59.6355 122.197 60.2645 122.152 60.8261C122.115 61.3838 121.963 61.86 121.695 62.2547C121.431 62.6586 120.995 62.9886 120.387 63.2445C119.833 63.4772 119.321 63.5737 118.848 63.5339C118.385 63.4901 117.959 63.3436 117.572 63.0943C117.198 62.8503 116.863 62.5305 116.566 62.1347C116.278 61.7351 116.035 61.3003 115.837 60.8303C115.635 60.3512 115.474 59.8388 115.353 59.2932C115.245 58.7529 115.181 58.2156 115.162 57.6812C115.152 57.1429 115.195 56.6259 115.29 56.1303L117.687 56.2936C117.656 56.3498 117.619 56.5065 117.575 56.7635C117.541 57.0166 117.517 57.3197 117.503 57.6728C117.502 58.0311 117.528 58.416 117.582 58.8272C117.636 59.2385 117.742 59.633 117.901 60.0108C118.072 60.4162 118.263 60.6885 118.473 60.8278C118.688 60.9762 118.91 61.0019 119.141 60.905C119.39 60.8002 119.539 60.6128 119.588 60.3427C119.64 60.0818 119.647 59.7484 119.606 59.3425C119.569 58.9458 119.523 58.488 119.467 57.9691C119.399 57.2926 119.397 56.7077 119.46 56.2145C119.528 55.7306 119.687 55.322 119.937 54.9889C120.192 54.665 120.568 54.3983 121.065 54.1888C121.757 53.898 122.405 53.8149 123.011 53.9396C123.631 54.0697 124.176 54.3607 124.649 54.8127C125.131 55.2609 125.509 55.8121 125.785 56.4663C125.979 56.9271 126.11 57.3927 126.178 57.8631C126.25 58.3427 126.28 58.8017 126.269 59.2401C126.263 59.6877 126.238 60.0939 126.197 60.4585L123.897 60.2545ZM121.809 69.2253L123.953 68.9613L124.518 73.5455L122.374 73.8095L121.809 69.2253ZM124.886 83.567L118.889 82.4994L119.32 80.0781L129.808 81.9451L129.466 83.8644L122.427 87.6226L128.601 88.7217L128.17 91.1431L117.682 89.2761L118.035 87.2978L124.886 83.567ZM114.899 95.6126C115.248 94.8928 115.699 94.3058 116.252 93.8516C116.81 93.4107 117.421 93.09 118.085 92.8892C118.754 92.7019 119.431 92.6351 120.116 92.689C120.81 92.7473 121.468 92.9267 122.089 93.2273C122.728 93.5367 123.279 93.9477 123.742 94.4605C124.201 94.9823 124.552 95.5636 124.798 96.2044C125.048 96.8585 125.162 97.5412 125.139 98.2524C125.117 98.9636 124.938 99.6657 124.603 100.359C124.258 101.069 123.807 101.645 123.249 102.086C122.696 102.54 122.085 102.861 121.416 103.048C120.743 103.245 120.06 103.314 119.365 103.256C118.68 103.202 118.036 103.029 117.433 102.737C116.794 102.428 116.243 102.017 115.78 101.504C115.317 100.991 114.961 100.407 114.711 99.7533C114.47 99.1036 114.356 98.4209 114.369 97.7053C114.387 97.0031 114.564 96.3055 114.899 95.6126ZM120.97 95.4683C120.601 95.2897 120.215 95.1694 119.811 95.1075C119.417 95.0499 119.035 95.0592 118.664 95.1355C118.29 95.2207 117.945 95.3816 117.63 95.6181C117.316 95.8546 117.06 96.1754 116.864 96.5803C116.659 97.0032 116.562 97.4114 116.571 97.8047C116.59 98.2024 116.688 98.5723 116.867 98.9143C117.046 99.2564 117.283 99.5596 117.577 99.8242C117.876 100.102 118.205 100.328 118.565 100.502C118.934 100.681 119.316 100.799 119.711 100.857C120.105 100.914 120.489 100.901 120.864 100.815C121.248 100.734 121.592 100.573 121.898 100.333C122.204 100.092 122.452 99.7733 122.644 99.3774C122.849 98.9545 122.947 98.5463 122.937 98.153C122.923 97.7686 122.829 97.4009 122.655 97.0499C122.485 96.7122 122.25 96.4045 121.952 96.1266C121.657 95.862 121.33 95.6426 120.97 95.4683ZM113.069 113.285L115.159 110.809L108.669 105.335L110.256 103.455L116.746 108.93L118.846 106.443L120.497 107.836L114.72 114.677L113.069 113.285ZM105.5 108.815L112.333 116.983L110.446 118.561L103.612 110.392L105.5 108.815ZM104.92 116.146C105.24 116.711 105.449 117.323 105.545 117.981C105.647 118.647 105.623 119.315 105.474 119.986C105.325 120.656 105.037 121.284 104.611 121.87C104.189 122.465 103.613 122.969 102.881 123.383C102.011 123.875 101.152 124.114 100.305 124.1C99.4487 124.09 98.694 123.874 98.0407 123.451L99.0352 121.371C99.3618 121.623 99.6943 121.774 100.033 121.824C100.363 121.878 100.686 121.862 101.004 121.774C101.319 121.699 101.602 121.591 101.854 121.448C102.263 121.216 102.573 120.932 102.784 120.594C103 120.265 103.132 119.909 103.18 119.526C103.227 119.143 103.205 118.759 103.113 118.374C103.022 117.99 102.882 117.632 102.695 117.301C102.488 116.936 102.232 116.616 101.927 116.34C101.621 116.065 101.29 115.856 100.934 115.713C100.568 115.575 100.189 115.514 99.7953 115.53C99.4069 115.554 99.0299 115.67 98.6643 115.877C98.4032 116.025 98.1624 116.218 97.9418 116.458C97.7213 116.698 97.5496 116.973 97.4268 117.284C97.3002 117.608 97.2622 117.957 97.3128 118.331L94.9793 118.29C94.9059 117.734 94.9868 117.177 95.2223 116.618C95.4578 116.06 95.7917 115.544 96.2241 115.069C96.6527 114.608 97.1238 114.233 97.6373 113.942C98.3075 113.563 99.0019 113.348 99.7205 113.298C100.435 113.261 101.125 113.353 101.791 113.574C102.452 113.808 103.056 114.144 103.603 114.582C104.146 115.033 104.585 115.554 104.92 116.146ZM92.414 116.784L95.8548 126.861L93.5261 127.655L90.0853 117.578L92.414 116.784ZM86.7913 129.088L84.1663 129.49L78.9344 119.519L81.4259 119.137L82.6029 121.37L85.8804 120.868L86.32 118.388L88.8115 118.007L86.7913 129.088ZM83.2601 122.983L85.1113 126.842L85.7516 122.602L83.2601 122.983ZM70.7838 126.466C70.8098 126.518 70.9086 126.601 71.0802 126.715C71.251 126.839 71.4663 126.971 71.7261 127.112C71.9859 127.253 72.2718 127.381 72.5838 127.496C72.8958 127.611 73.2113 127.681 73.5304 127.706C73.9492 127.739 74.2792 127.69 74.5203 127.558C74.7607 127.437 74.8927 127.227 74.9163 126.928C74.9352 126.689 74.8654 126.492 74.7069 126.34C74.5384 126.186 74.294 126.041 73.9736 125.906C73.6524 125.78 73.258 125.628 72.7904 125.451C72.1265 125.218 71.5555 124.952 71.0774 124.654C70.5985 124.365 70.2452 124.012 70.0174 123.592C69.7797 123.172 69.6868 122.634 69.7387 121.976C69.7859 121.378 69.9358 120.878 70.1882 120.477C70.4398 120.086 70.7653 119.775 71.1647 119.546C71.5533 119.326 71.9917 119.175 72.4797 119.093C72.967 119.022 73.4649 119.006 73.9735 119.046C74.492 119.087 75.0215 119.179 75.5621 119.322C76.0919 119.474 76.5986 119.664 77.0822 119.893C77.565 120.132 78.0048 120.407 78.4016 120.719L77.1559 122.772C77.1199 122.719 76.9978 122.614 76.7894 122.457C76.5803 122.311 76.3221 122.15 76.0148 121.975C75.6967 121.81 75.3426 121.656 74.9524 121.515C74.5622 121.374 74.1627 121.287 73.7539 121.255C73.3151 121.22 72.9856 121.264 72.7651 121.387C72.5348 121.51 72.4097 121.695 72.39 121.945C72.3688 122.214 72.4669 122.432 72.6845 122.6C72.892 122.766 73.1855 122.925 73.565 123.075C73.9344 123.225 74.3626 123.394 74.8493 123.583C75.4817 123.833 76.0025 124.1 76.4116 124.383C76.8107 124.665 77.1008 124.994 77.2818 125.37C77.4529 125.744 77.5172 126.2 77.4747 126.739C77.4157 127.486 77.1916 128.1 76.8025 128.581C76.4026 129.071 75.8933 129.422 75.2745 129.634C74.655 129.856 73.9912 129.938 73.2833 129.883C72.7847 129.843 72.3108 129.746 71.8615 129.59C71.4023 129.433 70.9804 129.249 70.5957 129.039C70.201 128.827 69.8512 128.619 69.5463 128.414L70.7838 126.466ZM63.7732 120.494L63.0258 122.52L58.69 120.922L59.4375 118.896L63.7732 120.494Z" fill="white"/>
<path d="M72.2845 78.1069H66.9688V81.0395H72.2845C72.4377 81.0397 72.5846 81.1114 72.6929 81.2388C72.8012 81.3662 72.8621 81.5391 72.8622 81.7193V90.3033H75.3549V81.7193C75.354 80.7616 75.0301 79.8434 74.4545 79.1662C73.8789 78.489 73.0985 78.1081 72.2845 78.1069Z" fill="white"/>
<path d="M78.3809 81.7193V90.3033H80.8734V81.7193C80.8736 81.5391 80.9345 81.3662 81.0428 81.2388C81.1511 81.1114 81.2979 81.0397 81.4511 81.0395H86.7679V78.1069H81.4528C80.6385 78.1076 79.8576 78.4883 79.2817 79.1656C78.7058 79.8428 78.3818 80.7613 78.3809 81.7193Z" fill="white"/>
<path d="M86.7673 72.5072H66.9688V75.4398H86.7673V72.5072Z" fill="white"/>
<path d="M70.1508 83.8431H67.6582V90.3033H70.1508V83.8431Z" fill="white"/>
<path d="M86.0766 83.8431H83.584V90.3033H86.0766V83.8431Z" fill="white"/>
<path d="M69.9902 67.7754V69.6933H72.4827V67.7754C72.4827 66.1819 71.9447 64.6537 70.987 63.527C70.0293 62.4002 68.7304 61.7672 67.3761 61.7672C66.0217 61.7672 64.7229 62.4002 63.7652 63.527C62.8076 64.6537 62.2695 66.1819 62.2695 67.7754V90.3036H64.7616V67.7754C64.7616 66.9596 65.037 66.1772 65.5272 65.6004C66.0175 65.0236 66.6825 64.6995 67.3758 64.6995C68.0692 64.6995 68.7341 65.0236 69.2244 65.6004C69.7147 66.1772 69.9902 66.9596 69.9902 67.7754Z" fill="white"/>
<path d="M86.3578 61.7655H86.3056C84.9518 61.7675 83.6537 62.4011 82.6965 63.5275C81.7392 64.6539 81.2007 66.1811 81.1992 67.7739V69.6919H83.6913V67.7739C83.6921 66.9585 83.9678 66.1767 84.4579 65.6001C84.948 65.0234 85.6125 64.6991 86.3056 64.6981H86.3578C87.0509 64.6989 87.7155 65.0233 88.2056 65.5999C88.6957 66.1766 88.9714 66.9584 88.9721 67.7739V90.3021H91.4647V67.7739C91.4632 66.1809 90.9246 64.6537 89.9672 63.5273C89.0098 62.4009 87.7117 61.7673 86.3578 61.7655Z" fill="white"/>
<defs>
<filter id="filter0_d_760_29631" x="15.4941" y="17.6899" width="122.746" height="122.011" filterUnits="userSpaceOnUse" color-interpolation-filters="sRGB">
<feFlood flood-opacity="0" result="BackgroundImageFix"/>
<feColorMatrix in="SourceAlpha" type="matrix" values="0 0 0 0 0 0 0 0 0 0 0 0 0 0 0 0 0 0 127 0" result="hardAlpha"/>
<feOffset dy="2"/>
<feGaussianBlur stdDeviation="2"/>
<feComposite in2="hardAlpha" operator="out"/>
<feColorMatrix type="matrix" values="0 0 0 0 0.777419 0 0 0 0 0.777419 0 0 0 0 0.777419 0 0 0 0.3 0"/>
<feBlend mode="normal" in2="BackgroundImageFix" result="effect1_dropShadow_760_29631"/>
<feBlend mode="normal" in="SourceGraphic" in2="effect1_dropShadow_760_29631" result="shape"/>
</filter>
</defs>
</svg>
