<svg width="55" height="56" viewBox="0 0 55 56" fill="none" xmlns="http://www.w3.org/2000/svg">
<path d="M16.6146 23.4166C16.6146 22.4674 17.3841 21.6979 18.3333 21.6979H36.6667C37.6159 21.6979 38.3854 22.4674 38.3854 23.4166C38.3854 24.3659 37.6159 25.1354 36.6667 25.1354H18.3333C17.3841 25.1354 16.6146 24.3659 16.6146 23.4166Z" fill="#2A2B2A"/>
<path d="M16.6146 23.4166C16.6146 22.4674 17.3841 21.6979 18.3333 21.6979H36.6667C37.6159 21.6979 38.3854 22.4674 38.3854 23.4166C38.3854 24.3659 37.6159 25.1354 36.6667 25.1354H18.3333C17.3841 25.1354 16.6146 24.3659 16.6146 23.4166Z" fill="black" fill-opacity="0.2"/>
<path d="M16.6146 32.5833C16.6146 31.6341 17.3841 30.8646 18.3333 30.8646H36.6667C37.6159 30.8646 38.3854 31.6341 38.3854 32.5833C38.3854 33.5325 37.6159 34.3021 36.6667 34.3021H18.3333C17.3841 34.3021 16.6146 33.5325 16.6146 32.5833Z" fill="#2A2B2A"/>
<path d="M16.6146 32.5833C16.6146 31.6341 17.3841 30.8646 18.3333 30.8646H36.6667C37.6159 30.8646 38.3854 31.6341 38.3854 32.5833C38.3854 33.5325 37.6159 34.3021 36.6667 34.3021H18.3333C17.3841 34.3021 16.6146 33.5325 16.6146 32.5833Z" fill="black" fill-opacity="0.2"/>
<path d="M16.6146 41.75C16.6146 40.8007 17.3841 40.0312 18.3333 40.0312H36.6667C37.6159 40.0312 38.3854 40.8007 38.3854 41.75C38.3854 42.6992 37.6159 43.4687 36.6667 43.4687H18.3333C17.3841 43.4687 16.6146 42.6992 16.6146 41.75Z" fill="#2A2B2A"/>
<path d="M16.6146 41.75C16.6146 40.8007 17.3841 40.0312 18.3333 40.0312H36.6667C37.6159 40.0312 38.3854 40.8007 38.3854 41.75C38.3854 42.6992 37.6159 43.4687 36.6667 43.4687H18.3333C17.3841 43.4687 16.6146 42.6992 16.6146 41.75Z" fill="black" fill-opacity="0.2"/>
<path fill-rule="evenodd" clip-rule="evenodd" d="M36.7409 3.55643C39.2035 3.74996 41.2611 4.14768 43.0333 5.04132C43.5169 5.28518 43.9752 5.5638 44.412 5.88116C45.5306 6.69392 46.5144 7.67768 47.3272 8.79635C48.6697 10.6442 49.2708 12.8084 49.5602 15.4794C49.8438 18.0968 49.8438 21.3959 49.8438 25.6046V30.3954C49.8438 34.6041 49.8438 37.9032 49.5602 40.5206C49.2708 43.1916 48.6697 45.3558 47.3272 47.2036C46.5144 48.3223 45.5306 49.306 44.412 50.1188C42.5641 51.4613 40.3999 52.0625 37.7289 52.3518C35.1115 52.6354 31.8125 52.6354 27.6038 52.6354H27.3962C23.1875 52.6354 19.8885 52.6354 17.2711 52.3518C14.6001 52.0625 12.4359 51.4613 10.588 50.1188C9.46937 49.306 8.48561 48.3223 7.67285 47.2036C6.33033 45.3558 5.72918 43.1916 5.43979 40.5206C5.15622 37.9032 5.15623 34.6041 5.15625 30.3953V25.6046C5.15623 21.3959 5.15622 18.0968 5.43979 15.4794C5.72918 12.8084 6.33033 10.6442 7.67285 8.79635C8.48561 7.67769 9.46937 6.69392 10.588 5.88116C11.4306 5.26901 12.3452 4.80655 13.3549 4.45816C15.0249 3.88193 16.9508 3.62048 19.2153 3.49226C21.4706 3.36456 24.1827 3.36456 27.4533 3.36456H27.5699C31.2938 3.36456 34.2992 3.36455 36.7409 3.55643ZM36.4716 6.98337C34.18 6.80327 31.3081 6.80206 27.5 6.80206C24.1736 6.80206 21.557 6.80268 19.4096 6.92426C18.6613 6.96663 17.9848 7.02314 17.3689 7.09668C19.275 8.98033 20.8064 10.4334 22.1735 11.5275C24.0124 12.9993 25.4022 13.6936 26.8105 13.9166C27.8199 14.0765 28.8483 14.0765 29.8577 13.9166C31.2267 13.6998 32.5785 13.0376 34.342 11.6487C35.689 10.5879 37.1958 9.1699 39.0711 7.32189C38.3249 7.17235 37.4693 7.06177 36.4716 6.98337ZM42.5124 8.75147C40.156 11.0968 38.2178 12.9719 36.4688 14.3493C34.4619 15.9298 32.5683 16.9677 30.3954 17.3118C29.0297 17.5281 27.6385 17.5281 26.2727 17.3118C24.0374 16.9578 22.0972 15.8694 20.0255 14.2113C18.1705 12.7266 16.0895 10.6832 13.5135 8.11114C13.1899 8.27438 12.8906 8.45723 12.6086 8.66216C11.7817 9.26289 11.0546 9.99002 10.4538 10.8169C9.60802 11.981 9.11499 13.4711 8.85729 15.8497C8.59611 18.2604 8.59375 21.3735 8.59375 25.7083V30.2916C8.59375 34.6265 8.59611 37.7396 8.85729 40.1503C9.11499 42.5288 9.60802 44.0189 10.4538 45.1831C11.0546 46.0099 11.7817 46.7371 12.6086 47.3378C13.7727 48.1836 15.2628 48.6767 17.6414 48.9344C20.0521 49.1955 23.1651 49.1979 27.5 49.1979C31.8349 49.1979 34.9479 49.1955 37.3587 48.9344C39.7372 48.6767 41.2273 48.1836 42.3914 47.3378C43.2183 46.7371 43.9454 46.0099 44.5462 45.1831C45.392 44.0189 45.885 42.5288 46.1427 40.1503C46.4039 37.7396 46.4062 34.6265 46.4062 30.2916V25.7083C46.4062 21.3735 46.4039 18.2604 46.1427 15.8497C45.885 13.4711 45.392 11.981 44.5462 10.8169C43.9749 10.0306 43.2893 9.33447 42.5124 8.75147Z" fill="#2A2B2A"/>
<path fill-rule="evenodd" clip-rule="evenodd" d="M36.7409 3.55643C39.2035 3.74996 41.2611 4.14768 43.0333 5.04132C43.5169 5.28518 43.9752 5.5638 44.412 5.88116C45.5306 6.69392 46.5144 7.67768 47.3272 8.79635C48.6697 10.6442 49.2708 12.8084 49.5602 15.4794C49.8438 18.0968 49.8438 21.3959 49.8438 25.6046V30.3954C49.8438 34.6041 49.8438 37.9032 49.5602 40.5206C49.2708 43.1916 48.6697 45.3558 47.3272 47.2036C46.5144 48.3223 45.5306 49.306 44.412 50.1188C42.5641 51.4613 40.3999 52.0625 37.7289 52.3518C35.1115 52.6354 31.8125 52.6354 27.6038 52.6354H27.3962C23.1875 52.6354 19.8885 52.6354 17.2711 52.3518C14.6001 52.0625 12.4359 51.4613 10.588 50.1188C9.46937 49.306 8.48561 48.3223 7.67285 47.2036C6.33033 45.3558 5.72918 43.1916 5.43979 40.5206C5.15622 37.9032 5.15623 34.6041 5.15625 30.3953V25.6046C5.15623 21.3959 5.15622 18.0968 5.43979 15.4794C5.72918 12.8084 6.33033 10.6442 7.67285 8.79635C8.48561 7.67769 9.46937 6.69392 10.588 5.88116C11.4306 5.26901 12.3452 4.80655 13.3549 4.45816C15.0249 3.88193 16.9508 3.62048 19.2153 3.49226C21.4706 3.36456 24.1827 3.36456 27.4533 3.36456H27.5699C31.2938 3.36456 34.2992 3.36455 36.7409 3.55643ZM36.4716 6.98337C34.18 6.80327 31.3081 6.80206 27.5 6.80206C24.1736 6.80206 21.557 6.80268 19.4096 6.92426C18.6613 6.96663 17.9848 7.02314 17.3689 7.09668C19.275 8.98033 20.8064 10.4334 22.1735 11.5275C24.0124 12.9993 25.4022 13.6936 26.8105 13.9166C27.8199 14.0765 28.8483 14.0765 29.8577 13.9166C31.2267 13.6998 32.5785 13.0376 34.342 11.6487C35.689 10.5879 37.1958 9.1699 39.0711 7.32189C38.3249 7.17235 37.4693 7.06177 36.4716 6.98337ZM42.5124 8.75147C40.156 11.0968 38.2178 12.9719 36.4688 14.3493C34.4619 15.9298 32.5683 16.9677 30.3954 17.3118C29.0297 17.5281 27.6385 17.5281 26.2727 17.3118C24.0374 16.9578 22.0972 15.8694 20.0255 14.2113C18.1705 12.7266 16.0895 10.6832 13.5135 8.11114C13.1899 8.27438 12.8906 8.45723 12.6086 8.66216C11.7817 9.26289 11.0546 9.99002 10.4538 10.8169C9.60802 11.981 9.11499 13.4711 8.85729 15.8497C8.59611 18.2604 8.59375 21.3735 8.59375 25.7083V30.2916C8.59375 34.6265 8.59611 37.7396 8.85729 40.1503C9.11499 42.5288 9.60802 44.0189 10.4538 45.1831C11.0546 46.0099 11.7817 46.7371 12.6086 47.3378C13.7727 48.1836 15.2628 48.6767 17.6414 48.9344C20.0521 49.1955 23.1651 49.1979 27.5 49.1979C31.8349 49.1979 34.9479 49.1955 37.3587 48.9344C39.7372 48.6767 41.2273 48.1836 42.3914 47.3378C43.2183 46.7371 43.9454 46.0099 44.5462 45.1831C45.392 44.0189 45.885 42.5288 46.1427 40.1503C46.4039 37.7396 46.4062 34.6265 46.4062 30.2916V25.7083C46.4062 21.3735 46.4039 18.2604 46.1427 15.8497C45.885 13.4711 45.392 11.981 44.5462 10.8169C43.9749 10.0306 43.2893 9.33447 42.5124 8.75147Z" fill="black" fill-opacity="0.2"/>
</svg>
