<svg width="20" height="17" viewBox="0 0 20 17" fill="none" xmlns="http://www.w3.org/2000/svg">
<path fill-rule="evenodd" clip-rule="evenodd" d="M6 1.5C6 0.947715 6.44772 0.5 7 0.5H19C19.5523 0.5 20 0.947715 20 1.5C20 2.05228 19.5523 2.5 19 2.5H7C6.44772 2.5 6 2.05228 6 1.5ZM0 8.5C0 7.94772 0.447715 7.5 1 7.5H19C19.5523 7.5 20 7.94772 20 8.5C20 9.05228 19.5523 9.5 19 9.5H1C0.447715 9.5 0 9.05228 0 8.5ZM6 15.5C6 14.9477 6.44772 14.5 7 14.5H19C19.5523 14.5 20 14.9477 20 15.5C20 16.0523 19.5523 16.5 19 16.5H7C6.44772 16.5 6 16.0523 6 15.5Z" fill="white"/>
</svg>
