<svg width="55" height="56" viewBox="0 0 55 56" fill="none" xmlns="http://www.w3.org/2000/svg">
<path d="M29.2188 23.4166C29.2188 22.4674 28.4492 21.6979 27.5 21.6979C26.5508 21.6979 25.7812 22.4674 25.7812 23.4166V28.5729H20.625C19.6758 28.5729 18.9062 29.3424 18.9062 30.2916C18.9062 31.2409 19.6758 32.0104 20.625 32.0104H25.7812V37.1666C25.7812 38.1159 26.5508 38.8854 27.5 38.8854C28.4492 38.8854 29.2188 38.1159 29.2188 37.1666V32.0104H34.375C35.3242 32.0104 36.0938 31.2409 36.0938 30.2916C36.0938 29.3424 35.3242 28.5729 34.375 28.5729H29.2188V23.4166Z" fill="#2A2B2A"/>
<path d="M29.2188 23.4166C29.2188 22.4674 28.4492 21.6979 27.5 21.6979C26.5508 21.6979 25.7812 22.4674 25.7812 23.4166V28.5729H20.625C19.6758 28.5729 18.9062 29.3424 18.9062 30.2916C18.9062 31.2409 19.6758 32.0104 20.625 32.0104H25.7812V37.1666C25.7812 38.1159 26.5508 38.8854 27.5 38.8854C28.4492 38.8854 29.2188 38.1159 29.2188 37.1666V32.0104H34.375C35.3242 32.0104 36.0938 31.2409 36.0938 30.2916C36.0938 29.3424 35.3242 28.5729 34.375 28.5729H29.2188V23.4166Z" fill="black" fill-opacity="0.2"/>
<path fill-rule="evenodd" clip-rule="evenodd" d="M34.4339 3.43187C32.4694 3.36456 30.1838 3.36456 27.5254 3.36456H27.3963C23.1876 3.36454 19.8885 3.36453 17.2711 3.64811C14.6001 3.93749 12.4359 4.53864 10.588 5.88116C9.46938 6.69392 8.48561 7.67769 7.67285 8.79635C6.33033 10.6442 5.72918 12.8084 5.43979 15.4794C5.15622 18.0968 5.15623 21.3959 5.15625 25.6046V30.3953C5.15623 34.6041 5.15622 37.9032 5.43979 40.5206C5.72918 43.1916 6.33033 45.3558 7.67285 47.2036C8.48561 48.3223 9.46937 49.306 10.588 50.1188C12.4359 51.4613 14.6001 52.0625 17.2711 52.3518C19.8884 52.6354 23.1875 52.6354 27.3961 52.6354H27.6038C31.8124 52.6354 35.1116 52.6354 37.7289 52.3518C40.3999 52.0625 42.5641 51.4613 44.412 50.1188C45.5306 49.306 46.5144 48.3223 47.3272 47.2036C48.6697 45.3558 49.2708 43.1916 49.5602 40.5206C49.8438 37.9032 49.8438 34.6042 49.8438 30.3956V25.6831C49.8438 23.0246 49.8438 20.7389 49.7764 18.7745C49.6294 14.4812 49.1647 11.3256 47.3272 8.79635C46.5144 7.67769 45.5306 6.69392 44.412 5.88116C41.8827 4.04358 38.7272 3.57896 34.4339 3.43187ZM12.6086 8.66216C13.7727 7.81634 15.2628 7.32331 17.6414 7.06561C20.0521 6.80442 23.1651 6.80206 27.5 6.80206C29.4441 6.80206 31.1478 6.80218 32.6604 6.82685C32.6704 7.91459 32.7043 8.71536 32.8185 9.43633C33.7115 15.0747 38.1336 19.4968 43.772 20.3898C44.493 20.504 45.2937 20.5379 46.3815 20.5479C46.4061 22.0605 46.4062 23.7642 46.4062 25.7083V30.2916C46.4062 34.6265 46.4039 37.7396 46.1427 40.1503C45.885 42.5288 45.392 44.0189 44.5462 45.1831C43.9454 46.0099 43.2183 46.7371 42.3914 47.3378C41.2273 48.1836 39.7372 48.6767 37.3587 48.9344C34.9479 49.1955 31.8349 49.1979 27.5 49.1979C23.1651 49.1979 20.0521 49.1955 17.6414 48.9344C15.2628 48.6767 13.7727 48.1836 12.6086 47.3378C11.7817 46.7371 11.0546 46.0099 10.4538 45.1831C9.60802 44.0189 9.11499 42.5288 8.85729 40.1503C8.59611 37.7396 8.59375 34.6265 8.59375 30.2916V25.7083C8.59375 21.3735 8.59611 18.2604 8.85729 15.8497C9.11499 13.4711 9.60802 11.981 10.4538 10.8169C11.0546 9.99002 11.7817 9.26289 12.6086 8.66216ZM36.2137 8.89859C36.1392 8.42872 36.1109 7.88461 36.1001 6.95662C39.2176 7.17151 41.0177 7.66407 42.3914 8.66216C43.2183 9.26289 43.9454 9.99003 44.5462 10.8169C45.5442 12.1906 46.0368 13.9907 46.2517 17.1082C45.3237 17.0975 44.7796 17.0691 44.3097 16.9947C40.1422 16.3346 36.8737 13.0661 36.2137 8.89859Z" fill="#2A2B2A"/>
<path fill-rule="evenodd" clip-rule="evenodd" d="M34.4339 3.43187C32.4694 3.36456 30.1838 3.36456 27.5254 3.36456H27.3963C23.1876 3.36454 19.8885 3.36453 17.2711 3.64811C14.6001 3.93749 12.4359 4.53864 10.588 5.88116C9.46938 6.69392 8.48561 7.67769 7.67285 8.79635C6.33033 10.6442 5.72918 12.8084 5.43979 15.4794C5.15622 18.0968 5.15623 21.3959 5.15625 25.6046V30.3953C5.15623 34.6041 5.15622 37.9032 5.43979 40.5206C5.72918 43.1916 6.33033 45.3558 7.67285 47.2036C8.48561 48.3223 9.46937 49.306 10.588 50.1188C12.4359 51.4613 14.6001 52.0625 17.2711 52.3518C19.8884 52.6354 23.1875 52.6354 27.3961 52.6354H27.6038C31.8124 52.6354 35.1116 52.6354 37.7289 52.3518C40.3999 52.0625 42.5641 51.4613 44.412 50.1188C45.5306 49.306 46.5144 48.3223 47.3272 47.2036C48.6697 45.3558 49.2708 43.1916 49.5602 40.5206C49.8438 37.9032 49.8438 34.6042 49.8438 30.3956V25.6831C49.8438 23.0246 49.8438 20.7389 49.7764 18.7745C49.6294 14.4812 49.1647 11.3256 47.3272 8.79635C46.5144 7.67769 45.5306 6.69392 44.412 5.88116C41.8827 4.04358 38.7272 3.57896 34.4339 3.43187ZM12.6086 8.66216C13.7727 7.81634 15.2628 7.32331 17.6414 7.06561C20.0521 6.80442 23.1651 6.80206 27.5 6.80206C29.4441 6.80206 31.1478 6.80218 32.6604 6.82685C32.6704 7.91459 32.7043 8.71536 32.8185 9.43633C33.7115 15.0747 38.1336 19.4968 43.772 20.3898C44.493 20.504 45.2937 20.5379 46.3815 20.5479C46.4061 22.0605 46.4062 23.7642 46.4062 25.7083V30.2916C46.4062 34.6265 46.4039 37.7396 46.1427 40.1503C45.885 42.5288 45.392 44.0189 44.5462 45.1831C43.9454 46.0099 43.2183 46.7371 42.3914 47.3378C41.2273 48.1836 39.7372 48.6767 37.3587 48.9344C34.9479 49.1955 31.8349 49.1979 27.5 49.1979C23.1651 49.1979 20.0521 49.1955 17.6414 48.9344C15.2628 48.6767 13.7727 48.1836 12.6086 47.3378C11.7817 46.7371 11.0546 46.0099 10.4538 45.1831C9.60802 44.0189 9.11499 42.5288 8.85729 40.1503C8.59611 37.7396 8.59375 34.6265 8.59375 30.2916V25.7083C8.59375 21.3735 8.59611 18.2604 8.85729 15.8497C9.11499 13.4711 9.60802 11.981 10.4538 10.8169C11.0546 9.99002 11.7817 9.26289 12.6086 8.66216ZM36.2137 8.89859C36.1392 8.42872 36.1109 7.88461 36.1001 6.95662C39.2176 7.17151 41.0177 7.66407 42.3914 8.66216C43.2183 9.26289 43.9454 9.99003 44.5462 10.8169C45.5442 12.1906 46.0368 13.9907 46.2517 17.1082C45.3237 17.0975 44.7796 17.0691 44.3097 16.9947C40.1422 16.3346 36.8737 13.0661 36.2137 8.89859Z" fill="black" fill-opacity="0.2"/>
</svg>
