<svg width="55" height="50" viewBox="0 0 55 50" fill="none" xmlns="http://www.w3.org/2000/svg">
<path fill-rule="evenodd" clip-rule="evenodd" d="M31.3915 14.3512C30.1783 10.4941 24.8226 10.4941 23.6093 14.3512C23.5083 14.6724 23.2419 14.838 22.9974 14.838C18.9286 14.838 17.4977 20.0465 20.5742 22.3554C20.8067 22.5299 20.9299 22.8697 20.8263 23.1992C20.2343 25.0814 20.9961 26.8495 22.2942 27.8237C23.6003 28.8039 25.5319 29.031 27.1406 27.8237C27.3591 27.6597 27.6418 27.6597 27.8603 27.8237C29.4689 29.031 31.4006 28.8039 32.7067 27.8237C34.0047 26.8495 34.7666 25.0814 34.1746 23.1992C34.0709 22.8697 34.1941 22.5299 34.4267 22.3554C37.5032 20.0465 36.0723 14.838 32.0035 14.838C31.7589 14.838 31.4925 14.6724 31.3915 14.3512ZM26.8885 15.3827C27.0926 14.7337 27.9083 14.7337 28.1124 15.3827C28.6453 17.0768 30.1968 18.2755 32.0035 18.2755C32.1796 18.2755 32.2924 18.3278 32.3764 18.3949C32.4723 18.4715 32.5634 18.5966 32.6155 18.7623C32.7207 19.0967 32.6301 19.4058 32.3633 19.6061C30.9364 20.677 30.3652 22.5448 30.8955 24.2306C31.0121 24.6014 30.8801 24.8966 30.6433 25.0744C30.5221 25.1653 30.3956 25.2049 30.2902 25.2082C30.1993 25.211 30.0775 25.1898 29.9237 25.0744C28.4826 23.9928 26.5183 23.9928 25.0772 25.0744C24.9234 25.1898 24.8016 25.211 24.7107 25.2082C24.6053 25.2049 24.4788 25.1653 24.3576 25.0744C24.1208 24.8966 23.9888 24.6014 24.1054 24.2306C24.6357 22.5448 24.0645 20.677 22.6376 19.6061C22.3708 19.4058 22.2802 19.0967 22.3854 18.7623C22.4375 18.5966 22.5286 18.4715 22.6244 18.3949C22.7085 18.3278 22.8213 18.2755 22.9974 18.2755C24.804 18.2755 26.3556 17.0768 26.8885 15.3827Z" fill="#FCC306"/>
<path fill-rule="evenodd" clip-rule="evenodd" d="M27.1298 3.73038e-05C23.2196 -0.000578052 20.8335 -0.000953426 18.8454 0.645008C14.8338 1.94846 11.6886 5.09361 10.3852 9.10522L10.3654 9.16674H9.69619C1.20433 9.16674 -2.44355 19.9423 4.30202 25.1007L4.32642 25.1194L9.97976 29.1306C10.1846 29.276 10.3973 29.4098 10.6166 29.5315C10.6197 29.5397 10.6228 29.5479 10.626 29.5561C10.648 29.6136 10.6706 29.671 10.6937 29.7283C11.2791 31.1827 12.422 32.9277 13.5211 34.0456C15.3123 35.8674 17.166 36.6753 20.1261 37.9653L20.3228 38.0511C21.5978 38.6069 22.887 39.1112 24.084 39.479C24.6509 39.6533 25.2233 39.8053 25.7819 39.9157V45.8334H18.334C17.3848 45.8334 16.6153 46.6029 16.6153 47.5522C16.6153 48.5014 17.3848 49.2709 18.334 49.2709H36.6673C37.6166 49.2709 38.3861 48.5014 38.3861 47.5522C38.3861 46.6029 37.6166 45.8334 36.6673 45.8334H29.2194V39.9157C29.7781 39.8053 30.3504 39.6533 30.9173 39.479C32.1144 39.1112 33.4036 38.6069 34.6786 38.0511L34.8753 37.9653C37.8353 36.6753 39.689 35.8674 41.4802 34.0456C42.5794 32.9277 43.7222 31.1826 44.3077 29.7283C44.3334 29.6646 44.3584 29.6007 44.3827 29.5368C44.6067 29.4094 44.8243 29.2708 45.0348 29.1215L50.6753 25.1194L50.6997 25.1007C57.4452 19.9423 53.7974 9.16674 45.3055 9.16674H44.6359L44.6162 9.10522C43.3127 5.09361 40.1676 1.94846 36.156 0.645008C34.1679 -0.000953426 31.7818 -0.000578052 27.8716 3.73038e-05H27.1298ZM6.36725 22.3525C2.26407 19.1841 4.5012 12.6042 9.69619 12.6042H9.81604C9.74012 13.9451 9.74018 15.5532 9.74026 17.5681L9.74024 21.0055C9.74007 22.4379 9.73993 23.6732 9.78605 24.7783L6.36725 22.3525ZM48.6344 22.3525L45.2153 24.7785C45.2614 23.6738 45.2613 22.4392 45.2611 21.0076L45.2611 17.568C45.2612 15.5534 45.2612 13.945 45.1853 12.6042H45.3055C50.5005 12.6042 52.7376 19.1841 48.6344 22.3525ZM19.9076 3.91426C21.3095 3.45878 23.1015 3.43758 27.5007 3.43758C31.8999 3.43758 33.6919 3.45878 35.0937 3.91426C38.0588 4.87768 40.3835 7.20236 41.3469 10.1675C41.4438 10.4658 41.5231 10.7923 41.5869 11.171C41.8176 12.5405 41.8236 14.3875 41.8236 17.7605V20.7406C41.8236 24.5151 41.8066 26.2795 41.3391 27.82C41.2752 28.0304 41.2024 28.2373 41.1189 28.4446C40.7027 29.4785 39.8105 30.8408 39.029 31.6356C37.7469 32.9396 36.505 33.5048 33.3048 34.9C32.0989 35.4258 30.9381 35.8765 29.9076 36.1932C28.8519 36.5176 28.0416 36.6667 27.5007 36.6667C26.9598 36.6667 26.1495 36.5176 25.0938 36.1932C24.0633 35.8765 22.9025 35.4258 21.6966 34.9C18.4964 33.5048 17.2544 32.9396 15.9723 31.6356C15.1909 30.8408 14.2987 29.4785 13.8824 28.4446C13.7965 28.2311 13.7218 28.0181 13.6566 27.8011C13.1945 26.264 13.1778 24.499 13.1778 20.7406V17.7605C13.1778 14.3875 13.1838 12.5405 13.4145 11.171C13.4783 10.7923 13.5575 10.4658 13.6545 10.1675C14.6179 7.20236 16.9426 4.87768 19.9076 3.91426Z" fill="#FCC306"/>
</svg>
