<svg width="54" height="50" viewBox="0 0 54 50" fill="none" xmlns="http://www.w3.org/2000/svg">
<path fill-rule="evenodd" clip-rule="evenodd" d="M30.8915 14.3512C29.6783 10.4941 24.3226 10.4941 23.1093 14.3512C23.0083 14.6724 22.7419 14.838 22.4974 14.838C18.4286 14.838 16.9977 20.0465 20.0742 22.3554C20.3067 22.5299 20.4299 22.8697 20.3263 23.1992C19.7343 25.0814 20.4961 26.8495 21.7942 27.8237C23.1003 28.8039 25.0319 29.031 26.6406 27.8237C26.8591 27.6597 27.1418 27.6597 27.3603 27.8237C28.9689 29.031 30.9006 28.8039 32.2067 27.8237C33.5047 26.8495 34.2666 25.0814 33.6746 23.1992C33.5709 22.8697 33.6941 22.5299 33.9267 22.3554C37.0032 20.0465 35.5723 14.838 31.5035 14.838C31.2589 14.838 30.9925 14.6724 30.8915 14.3512ZM26.3885 15.3827C26.5926 14.7337 27.4083 14.7337 27.6124 15.3827C28.1453 17.0768 29.6968 18.2755 31.5035 18.2755C31.6796 18.2755 31.7924 18.3278 31.8764 18.3949C31.9723 18.4715 32.0634 18.5966 32.1155 18.7623C32.2207 19.0967 32.1301 19.4058 31.8633 19.6061C30.4364 20.677 29.8652 22.5448 30.3955 24.2306C30.5121 24.6014 30.3801 24.8966 30.1433 25.0744C30.0221 25.1653 29.8956 25.2049 29.7902 25.2082C29.6993 25.211 29.5775 25.1898 29.4237 25.0744C27.9826 23.9928 26.0183 23.9928 24.5772 25.0744C24.4234 25.1898 24.3016 25.211 24.2107 25.2082C24.1053 25.2049 23.9788 25.1653 23.8576 25.0744C23.6208 24.8966 23.4888 24.6014 23.6054 24.2306C24.1357 22.5448 23.5645 20.677 22.1376 19.6061C21.8708 19.4058 21.7802 19.0967 21.8854 18.7623C21.9375 18.5966 22.0286 18.4715 22.1244 18.3949C22.2085 18.3278 22.3213 18.2755 22.4974 18.2755C24.304 18.2755 25.8556 17.0768 26.3885 15.3827Z" fill="white"/>
<path fill-rule="evenodd" clip-rule="evenodd" d="M26.6298 3.73038e-05C22.7196 -0.000578052 20.3335 -0.000953426 18.3454 0.645008C14.3338 1.94846 11.1886 5.09361 9.8852 9.10522L9.86544 9.16674H9.19619C0.704328 9.16674 -2.94355 19.9423 3.80202 25.1007L3.82642 25.1194L9.47976 29.1306C9.68464 29.276 9.89725 29.4098 10.1166 29.5315C10.1197 29.5397 10.1228 29.5479 10.126 29.5561C10.148 29.6136 10.1706 29.671 10.1937 29.7283C10.7791 31.1827 11.922 32.9277 13.0211 34.0456C14.8123 35.8674 16.666 36.6753 19.6261 37.9653L19.8228 38.0511C21.0978 38.6069 22.387 39.1112 23.584 39.479C24.1509 39.6533 24.7233 39.8053 25.2819 39.9157V45.8334H17.834C16.8848 45.8334 16.1153 46.6029 16.1153 47.5522C16.1153 48.5014 16.8848 49.2709 17.834 49.2709H36.1673C37.1166 49.2709 37.8861 48.5014 37.8861 47.5522C37.8861 46.6029 37.1166 45.8334 36.1673 45.8334H28.7194V39.9157C29.2781 39.8053 29.8504 39.6533 30.4173 39.479C31.6144 39.1112 32.9036 38.6069 34.1786 38.0511L34.3753 37.9653C37.3353 36.6753 39.189 35.8674 40.9802 34.0456C42.0794 32.9277 43.2222 31.1826 43.8077 29.7283C43.8334 29.6646 43.8584 29.6007 43.8827 29.5368C44.1067 29.4094 44.3243 29.2708 44.5348 29.1215L50.1753 25.1194L50.1997 25.1007C56.9452 19.9423 53.2974 9.16674 44.8055 9.16674H44.1359L44.1162 9.10522C42.8127 5.09361 39.6676 1.94846 35.656 0.645008C33.6679 -0.000953426 31.2818 -0.000578052 27.3716 3.73038e-05H26.6298ZM5.86725 22.3525C1.76407 19.1841 4.0012 12.6042 9.19619 12.6042H9.31604C9.24012 13.9451 9.24018 15.5532 9.24026 17.5681L9.24024 21.0055C9.24007 22.4379 9.23993 23.6732 9.28605 24.7783L5.86725 22.3525ZM48.1344 22.3525L44.7153 24.7785C44.7614 23.6738 44.7613 22.4392 44.7611 21.0076L44.7611 17.568C44.7612 15.5534 44.7612 13.945 44.6853 12.6042H44.8055C50.0005 12.6042 52.2376 19.1841 48.1344 22.3525ZM19.4076 3.91426C20.8095 3.45878 22.6015 3.43758 27.0007 3.43758C31.3999 3.43758 33.1919 3.45878 34.5937 3.91426C37.5588 4.87768 39.8835 7.20236 40.8469 10.1675C40.9438 10.4658 41.0231 10.7923 41.0869 11.171C41.3176 12.5405 41.3236 14.3875 41.3236 17.7605V20.7406C41.3236 24.5151 41.3066 26.2795 40.8391 27.82C40.7752 28.0304 40.7024 28.2373 40.6189 28.4446C40.2027 29.4785 39.3105 30.8408 38.529 31.6356C37.2469 32.9396 36.005 33.5048 32.8048 34.9C31.5989 35.4258 30.4381 35.8765 29.4076 36.1932C28.3519 36.5176 27.5416 36.6667 27.0007 36.6667C26.4598 36.6667 25.6495 36.5176 24.5938 36.1932C23.5633 35.8765 22.4025 35.4258 21.1966 34.9C17.9964 33.5048 16.7544 32.9396 15.4723 31.6356C14.6909 30.8408 13.7987 29.4785 13.3824 28.4446C13.2965 28.2311 13.2218 28.0181 13.1566 27.8011C12.6945 26.264 12.6778 24.499 12.6778 20.7406V17.7605C12.6778 14.3875 12.6838 12.5405 12.9145 11.171C12.9783 10.7923 13.0575 10.4658 13.1545 10.1675C14.1179 7.20236 16.4426 4.87768 19.4076 3.91426Z" fill="white"/>
</svg>
