<svg width="48" height="48" viewBox="0 0 48 48" fill="none" xmlns="http://www.w3.org/2000/svg">
<path d="M43.5833 23.7849V25.5278C43.5833 32.4995 41.8404 34.2228 34.8883 34.2228H13.1117C6.15958 34.2228 4.41666 32.4799 4.41666 25.5278V13.112C4.41666 6.15991 6.15958 4.41699 13.1117 4.41699H16.1667" stroke="white" stroke-width="3" stroke-linecap="round" stroke-linejoin="round"/>
<path d="M24 34.2227V43.5835" stroke="white" stroke-width="3" stroke-linecap="round" stroke-linejoin="round"/>
<path d="M4.41666 25.958H43.5833" stroke="white" stroke-width="3" stroke-linecap="round" stroke-linejoin="round"/>
<path d="M15.1875 43.583H32.8125" stroke="white" stroke-width="3" stroke-linecap="round" stroke-linejoin="round"/>
<path d="M35.4758 18.8499H26.1542C23.4517 18.8499 22.5508 17.0482 22.5508 15.2465V8.35319C22.5508 6.19902 24.3133 4.43652 26.4675 4.43652H35.4758C37.4733 4.43652 39.0792 6.04236 39.0792 8.03986V15.2465C39.0792 17.244 37.4733 18.8499 35.4758 18.8499Z" stroke="white" stroke-width="3" stroke-linecap="round" stroke-linejoin="round"/>
<path d="M41.4487 16.0102L39.0792 14.3456V8.94059L41.4487 7.27601C42.6237 6.47309 43.5833 6.96268 43.5833 8.39226V14.9135C43.5833 16.3431 42.6237 16.8327 41.4487 16.0102Z" stroke="white" stroke-width="3" stroke-linecap="round" stroke-linejoin="round"/>
</svg>
