<svg width="54" height="53" viewBox="0 0 54 53" fill="none" xmlns="http://www.w3.org/2000/svg">
<path d="M49.0835 11.3732V19.5441C49.0835 24.5128 47.096 26.5003 42.1272 26.5003H36.1647C31.196 26.5003 29.2085 24.5128 29.2085 19.5441V11.3732C29.2085 6.40449 31.196 4.41699 36.1647 4.41699H42.1272C47.096 4.41699 49.0835 6.40449 49.0835 11.3732Z" stroke="white" stroke-width="3" stroke-linecap="round" stroke-linejoin="round"/>
<path d="M24.7915 33.4562V41.6271C24.7915 46.5958 22.804 48.5833 17.8353 48.5833H11.8728C6.904 48.5833 4.9165 46.5958 4.9165 41.6271V33.4562C4.9165 28.4875 6.904 26.5 11.8728 26.5H17.8353C22.804 26.5 24.7915 28.4875 24.7915 33.4562Z" stroke="white" stroke-width="3" stroke-linecap="round" stroke-linejoin="round"/>
<path d="M49.0833 33.125C49.0833 41.6713 42.1713 48.5833 33.625 48.5833L35.9437 44.7188" stroke="white" stroke-width="3" stroke-linecap="round" stroke-linejoin="round"/>
<path d="M4.9165 19.8753C4.9165 11.3291 11.8286 4.41699 20.3748 4.41699L18.0561 8.28158" stroke="white" stroke-width="3" stroke-linecap="round" stroke-linejoin="round"/>
</svg>
