<svg width="53" height="53" viewBox="0 0 53 53" fill="none" xmlns="http://www.w3.org/2000/svg">
<path d="M9.40771 22.1217V33.0971C9.40771 37.1162 9.40771 37.1162 13.206 39.6779L23.6515 45.7067C25.2194 46.6121 27.781 46.6121 29.349 45.7067L39.7944 39.6779C43.5927 37.1162 43.5927 37.1162 43.5927 33.0971V22.1217C43.5927 18.1025 43.5927 18.1025 39.7944 15.5408L29.349 9.51207C27.781 8.60665 25.2194 8.60665 23.6515 9.51207L13.206 15.5408C9.40771 18.1025 9.40771 18.1025 9.40771 22.1217Z" stroke="white" stroke-width="3" stroke-linecap="round" stroke-linejoin="round"/>
<path d="M27.8913 22.0555L29.15 24.0209C29.3488 24.3301 29.7905 24.6393 30.1217 24.7276L32.3742 25.3018C33.7655 25.6551 34.1409 26.8476 33.2355 27.9518L31.7559 29.7405C31.535 30.0276 31.3584 30.5355 31.3805 30.8888L31.513 33.2076C31.6013 34.643 30.5855 35.3718 29.2605 34.8418L27.0963 33.9805C26.765 33.848 26.213 33.848 25.8817 33.9805L23.7175 34.8418C22.3925 35.3718 21.3767 34.6209 21.465 33.2076L21.5975 30.8888C21.6196 30.5355 21.443 30.0055 21.2221 29.7405L19.7425 27.9518C18.8371 26.8476 19.2125 25.6551 20.6038 25.3018L22.8563 24.7276C23.2096 24.6393 23.6513 24.308 23.828 24.0209L25.0867 22.0555C25.8817 20.863 27.1184 20.863 27.8913 22.0555Z" stroke="white" stroke-width="3" stroke-linecap="round" stroke-linejoin="round"/>
</svg>
